<?xml version="1.0" standalone="no"?>
<!DOCTYPE svg PUBLIC "-//W3C//DTD SVG 1.1//EN" "http://www.w3.org/Graphics/SVG/1.1/DTD/svg11.dtd" >
<svg>
<metadata>
Created by FontForge 20090622 at Wed Mar 28 10:18:50 2018
 By deploy user
2005 Albert-Jan Pool published by FSI FontShop International GmbH
</metadata>
<defs>
<font id="DINOT-Cond" horiz-adv-x="277" >
  <font-face 
    font-family="DINOT-Cond"
    font-weight="400"
    font-stretch="condensed"
    units-per-em="1000"
    panose-1="2 11 5 6 2 1 1 1 1 2"
    ascent="764"
    descent="-236"
    x-height="509"
    cap-height="712"
    bbox="-70 -220 835 933"
    underline-thickness="44"
    underline-position="-68"
    unicode-range="U+000D-U+FB02"
  />
<missing-glyph horiz-adv-x="373" 
d="M62 0v712h249v-712h-249zM106 44h161v624h-161v-624z" />
    <glyph glyph-name=".notdef" horiz-adv-x="373" 
d="M62 0v712h249v-712h-249zM106 44h161v624h-161v-624z" />
    <glyph glyph-name=".null" horiz-adv-x="0" 
 />
    <glyph glyph-name=".null" horiz-adv-x="0" 
 />
    <glyph glyph-name="nonmarkingreturn" horiz-adv-x="333" 
 />
    <glyph glyph-name="CR" unicode="&#xd;" horiz-adv-x="194" 
 />
    <glyph glyph-name="space" unicode=" " horiz-adv-x="194" 
 />
    <glyph glyph-name="exclam" unicode="!" horiz-adv-x="227" 
d="M156 187h-56v525h56v-525zM165 0h-75v75h75v-75z" />
    <glyph glyph-name="quotedbl" unicode="&#x22;" horiz-adv-x="352" 
d="M127 529h-65v183h65v-183zM290 529h-64v183h64v-183z" />
    <glyph glyph-name="numbersign" unicode="#" horiz-adv-x="500" 
d="M444 444h-79l-20 -163h73v-51h-81l-29 -230h-54l29 230h-102l-29 -230h-54l29 230h-72v51h79l21 163h-73v50h80l28 218h54l-28 -218h102l28 218h54l-28 -218h72v-50zM311 444h-102l-21 -163h102z" />
    <glyph glyph-name="dollar" unicode="$" horiz-adv-x="404" 
d="M351 186q0 -110 -44 -154q-30 -30 -81 -36v-110h-53v109q-57 5 -89 37q-24 25 -33 56t-9 90h59q0 -78 28 -106q18 -18 44 -22v298l-32 13q-55 22 -74.5 59.5t-19.5 118.5q0 95 49 141q32 30 77 36v90h53v-90q50 -6 81 -37q25 -25 34 -56.5t9 -81.5h-59q0 67 -27 98
q-16 17 -38 23v-273l33 -13q55 -22 73.5 -64.5t18.5 -125.5zM292 184q0 65 -13.5 94.5t-52.5 47.5v-275q25 6 38 21q28 30 28 112zM173 411v251q-22 -6 -36 -20q-31 -31 -31 -102q0 -60 13 -85.5t54 -43.5z" />
    <glyph glyph-name="percent" unicode="%" horiz-adv-x="617" 
d="M252 446q0 -45 -28 -72.5t-71 -27.5t-70.5 27.5t-27.5 72.5v175q0 45 27.5 72t70.5 27t71 -27t28 -72v-175zM562 92q0 -45 -27.5 -72.5t-70.5 -27.5t-70.5 27.5t-27.5 72.5v174q0 45 27.5 72.5t70.5 27.5t70.5 -27.5t27.5 -72.5v-174zM456 712l-248 -712h-47l248 712h47z
M514 92v174q0 27 -13 42t-37 15t-37 -15t-13 -42v-174q0 -27 13 -42t37 -15t37 15t13 42zM203 446v174q0 27 -13 42t-37 15q-49 0 -49 -57v-174q0 -57 49 -57q24 0 37 15t13 42z" />
    <glyph glyph-name="ampersand" unicode="&#x26;" horiz-adv-x="486" 
d="M481 0h-64l-55 84q-37 -46 -74 -69t-92 -23q-68 0 -113 46.5t-45 125.5q0 63 29 113t95 111q-55 78 -72.5 112.5t-17.5 74.5q0 60 35 101.5t98 41.5q64 0 99 -37t35 -97t-24 -102.5t-85 -100.5l132 -199q40 65 47 168h54q-10 -129 -69 -218zM332 130l-141 214
q-51 -50 -74 -90.5t-23 -84.5q0 -53 29 -89t79 -36q63 0 130 86zM285 582q0 37 -22 61t-57 24q-39 0 -59 -27t-20 -63q0 -30 14.5 -59.5t59.5 -92.5q45 44 64.5 76.5t19.5 80.5z" />
    <glyph glyph-name="quotesingle" unicode="'" horiz-adv-x="189" 
d="M127 529h-65v183h65v-183z" />
    <glyph glyph-name="parenleft" unicode="(" horiz-adv-x="222" 
d="M181 -56l-38 -38q-49 49 -65 80q-20 38 -20 97v546q0 59 20 97q16 31 65 80l38 -38q-42 -42 -52 -63q-15 -29 -15 -82v-534q0 -53 15 -82q10 -21 52 -63z" />
    <glyph glyph-name="parenright" unicode=")" horiz-adv-x="222" 
d="M164 83q0 -59 -20 -97q-15 -29 -66 -80l-38 38q44 44 53 63q15 29 15 82v534q0 53 -15 82q-9 19 -53 63l38 38q51 -51 66 -80q20 -38 20 -97v-546z" />
    <glyph glyph-name="asterisk" unicode="*" horiz-adv-x="369" 
d="M318 505l-22 -40l-91 55l2 -127h-45l3 127l-92 -55l-22 40l93 50l-93 50l22 40l92 -55l-3 127h45l-2 -127l91 55l22 -40l-93 -50z" />
    <glyph glyph-name="plus" unicode="+" horiz-adv-x="431" 
d="M383 251h-141v-141h-53v141h-140v53h140v140h53v-140h141v-53z" />
    <glyph glyph-name="comma" unicode="," horiz-adv-x="184" 
d="M127 -48l-69 -51v176h69v-125z" />
    <glyph glyph-name="hyphen" unicode="-" horiz-adv-x="301" 
d="M246 251h-191v53h191v-53z" />
    <glyph glyph-name="period" unicode="." horiz-adv-x="199" 
d="M137 0h-75v75h75v-75z" />
    <glyph glyph-name="slash" unicode="/" horiz-adv-x="246" 
d="M244 786l-185 -860h-57l185 860h57z" />
    <glyph glyph-name="zero" unicode="0" horiz-adv-x="361" 
d="M307 128q0 -65 -36 -101q-35 -35 -91 -35q-55 0 -90 35q-36 36 -36 101v456q0 65 36 101q35 35 90 35q56 0 91 -35q36 -36 36 -101v-456zM251 125v462q0 40 -20 61.5t-51 21.5t-50.5 -21.5t-19.5 -61.5v-462q0 -40 19.5 -61.5t50.5 -21.5t51 21.5t20 61.5z" />
    <glyph glyph-name="one" unicode="1" horiz-adv-x="361" 
d="M221 0h-56v646l-102 -88v67l102 87h56v-712z" />
    <glyph glyph-name="two" unicode="2" horiz-adv-x="361" 
d="M311 0h-260v47l170 390q34 78 34 150q0 40 -19.5 61.5t-50.5 21.5t-51 -21.5t-20 -61.5v-51h-56v50q0 63 36 99q35 35 91 35q55 0 89 -34q37 -37 37 -102q0 -69 -41 -165l-159 -369h200v-50z" />
    <glyph glyph-name="three" unicode="3" horiz-adv-x="361" 
d="M307 196q0 -75 -8 -109.5t-32 -59.5q-35 -35 -91 -35t-90 34q-37 37 -37 101v49h56v-50q0 -40 20 -62t51 -22q32 0 49 21q14 17 20 44t6 89q0 72 -5 97.5t-20 42.5q-19 21 -50 21h-41v49h41q31 0 45 17q24 25 24 115q0 87 -22 113q-16 19 -47 19q-30 0 -48 -21.5
t-18 -61.5v-51h-56v49q0 68 35 101q34 34 87 34q55 0 88 -33q20 -20 28.5 -52.5t8.5 -94.5q0 -88 -20 -121q-13 -24 -40 -38q26 -14 40 -34q16 -23 21 -51t5 -100z" />
    <glyph glyph-name="four" unicode="4" horiz-adv-x="361" 
d="M328 124h-50v-124h-56v124h-188v50l180 538h55l-179 -538h132v199h56v-199h50v-50z" />
    <glyph glyph-name="five" unicode="5" horiz-adv-x="361" 
d="M311 224q0 -85 -8 -125t-32 -67q-34 -40 -91 -40t-90 33q-38 38 -38 102v47h56v-45q0 -43 20 -65t53 -22q31 0 49 25q14 19 19.5 50.5t5.5 106.5q0 73 -5.5 105.5t-19.5 52.5q-17 26 -50 26q-31 0 -51.5 -23t-20.5 -60v-33h-52v420h245v-50h-194v-252q11 19 33 33
q24 14 54 14q50 0 81 -39q21 -25 28.5 -64.5t7.5 -129.5z" />
    <glyph glyph-name="six" unicode="6" horiz-adv-x="361" 
d="M310 210q0 -81 -7 -116.5t-29 -62.5q-32 -39 -94 -39t-93 39q-22 27 -29.5 63t-7.5 116q0 113 29 191l115 311h56l-114 -306q26 21 58 21q50 0 81 -36q21 -23 28 -57.5t7 -123.5zM254 211q0 67 -5 99t-19 48q-18 21 -50 21t-50 -21q-14 -16 -19 -48t-5 -99
q0 -120 24 -148q18 -21 50 -21t50 21q24 28 24 148z" />
    <glyph glyph-name="seven" unicode="7" horiz-adv-x="361" 
d="M314 667l-190 -667h-59l191 662h-154v-116h-55v166h267v-45z" />
    <glyph glyph-name="eight" unicode="8" horiz-adv-x="361" 
d="M310 196q0 -75 -7.5 -109.5t-31.5 -59.5q-35 -35 -91 -35q-55 0 -90 35q-24 25 -32 60t-8 109q0 70 5.5 98.5t20.5 50.5q13 21 40 35q-25 13 -40 38q-21 38 -21 121q0 62 8.5 94.5t29.5 53.5q35 33 87 33q54 0 87 -33q21 -21 29.5 -53.5t8.5 -94.5q0 -85 -20 -121
q-14 -23 -40 -38q27 -14 40 -35q15 -22 20 -50t5 -99zM254 197q0 69 -5 95t-20 43q-18 21 -49 21t-49 -21q-15 -17 -20 -43t-5 -95q0 -62 5.5 -89.5t19.5 -44.5q18 -21 49 -21t49 21q14 17 19.5 44.5t5.5 89.5zM249 537q0 91 -23 115q-18 18 -46 18q-27 0 -45 -18
q-24 -25 -24 -115q0 -89 25 -115q16 -17 44 -17q29 0 45 17q24 25 24 115z" />
    <glyph glyph-name="nine" unicode="9" horiz-adv-x="361" 
d="M310 502q0 -113 -29 -191l-114 -311h-57l115 306q-26 -21 -58 -21q-50 0 -81 36q-21 23 -28.5 58t-7.5 123q0 81 7.5 117t29.5 62q33 39 94 39q60 0 93 -39q22 -27 29 -62.5t7 -116.5zM254 501q0 68 -5 100t-19 48q-20 21 -50 21q-31 0 -50 -21q-14 -16 -19 -48t-5 -100
t5 -99.5t19 -47.5q19 -21 50 -21q30 0 50 21q14 16 19 47.5t5 99.5z" />
    <glyph glyph-name="colon" unicode=":" horiz-adv-x="227" 
d="M165 339h-75v76h75v-76zM165 0h-75v75h75v-75z" />
    <glyph glyph-name="semicolon" unicode=";" horiz-adv-x="227" 
d="M162 -48l-69 -51v176h69v-125zM165 339h-75v76h75v-76z" />
    <glyph glyph-name="less" unicode="&#x3c;" horiz-adv-x="361" 
d="M327 90l-293 169v49l293 170v-63l-229 -131l229 -131v-63z" />
    <glyph glyph-name="equal" unicode="=" horiz-adv-x="431" 
d="M383 314h-334v53h334v-53zM383 171h-334v53h334v-53z" />
    <glyph glyph-name="greater" unicode="&#x3e;" horiz-adv-x="361" 
d="M327 259l-293 -169v63l229 131l-229 131v63l293 -170v-49z" />
    <glyph glyph-name="question" unicode="?" horiz-adv-x="375" 
d="M332 547q0 -69 -29 -115l-58 -93q-22 -34 -22 -74v-78h-56v85q0 42 25 82l58 93q26 41 26 101q0 68 -28 98q-20 22 -55 22q-33 0 -54 -21q-26 -26 -26 -86h-56q0 82 39 120q37 37 97 37q62 0 98 -37q22 -22 31.5 -51.5t9.5 -82.5zM233 0h-75v75h75v-75z" />
    <glyph glyph-name="at" unicode="@" horiz-adv-x="515" 
d="M454 0h-55v41q-11 -19 -28 -31q-26 -18 -59 -18q-48 0 -80 34q-31 33 -31 101v223q0 67 31 100q32 34 80 34q34 0 60 -16q17 -10 26 -29v128q0 47 -24 72t-66 25h-107q-41 0 -65.5 -25t-24.5 -72v-466q0 -47 27 -72l-39 -38q-44 38 -44 112v466q0 67 39 106q37 37 99 37
h123q62 0 99 -37q39 -39 39 -106v-569zM398 125v226q0 40 -19.5 61.5t-50.5 21.5t-51 -21.5t-20 -61.5v-226q0 -40 20 -61.5t51 -21.5t50.5 21.5t19.5 61.5z" />
    <glyph glyph-name="A" unicode="A" horiz-adv-x="379" 
d="M374 0h-63l-39 195h-166l-38 -195h-64l159 712h55zM261 248l-72 358l-71 -358h143z" />
    <glyph glyph-name="B" unicode="B" horiz-adv-x="416" 
d="M363 196q0 -64 -10 -97t-34 -58q-40 -41 -123 -41h-127v712h128q82 0 120 -41q23 -24 31.5 -55t8.5 -87q0 -87 -43 -131q-22 -22 -45 -28q30 -8 50 -28q44 -44 44 -146zM304 198q0 145 -106 145h-70v-290h70q54 0 80 31.5t26 113.5zM298 527q0 74 -24.5 103t-75.5 29h-70
v-264h70q100 0 100 132z" />
    <glyph glyph-name="C" unicode="C" horiz-adv-x="399" 
d="M358 163q-2 -93 -50 -137q-37 -34 -98 -34q-67 0 -106 42q-32 34 -41 92.5t-9 229.5t9 229.5t41 92.5q39 42 106 42q64 0 102 -38q44 -44 46 -133h-59q0 65 -28 94q-22 24 -61 24q-40 0 -63 -26q-22 -25 -28 -76.5t-6 -208.5t6 -208.5t28 -76.5q23 -26 63 -26q39 0 61 24
q28 29 28 94h59z" />
    <glyph glyph-name="D" unicode="D" horiz-adv-x="424" 
d="M371 356q0 -167 -9 -224t-41 -91q-39 -41 -106 -41h-146v712h146q67 0 106 -41q32 -34 41 -91t9 -224zM312 356q0 155 -6 204.5t-29 73.5q-22 25 -65 25h-84v-606h84q43 0 65 25q23 24 29 73.5t6 204.5z" />
    <glyph glyph-name="E" unicode="E" horiz-adv-x="364" 
d="M317 0h-248v712h248v-53h-189v-276h163v-53h-163v-277h189v-53z" />
    <glyph glyph-name="F" unicode="F" horiz-adv-x="359" 
d="M317 659h-189v-276h163v-53h-163v-330h-59v712h248v-53z" />
    <glyph glyph-name="G" unicode="G" horiz-adv-x="412" 
d="M358 152q0 -77 -42.5 -118.5t-105.5 -41.5q-67 0 -106 42q-32 34 -41 92.5t-9 229.5t9 229.5t41 92.5q39 42 106 42q65 0 104 -39q42 -45 44 -132h-59q0 118 -89 118q-40 0 -63 -26q-22 -25 -28 -76.5t-6 -208.5t6 -208.5t28 -76.5q23 -26 63 -26t64.5 28.5t24.5 78.5
v175h-89v50h148v-225z" />
    <glyph glyph-name="H" unicode="H" horiz-adv-x="432" 
d="M363 0h-59v336h-176v-336h-59v712h59v-323h176v323h59v-712z" />
    <glyph glyph-name="I" unicode="I" horiz-adv-x="197" 
d="M128 0h-59v712h59v-712z" />
    <glyph glyph-name="J" unicode="J" horiz-adv-x="332" 
d="M271 153q0 -78 -42 -120q-41 -41 -108 -41q-71 0 -113 50l43 39q26 -36 70 -36q40 0 65.5 28.5t25.5 79.5v559h59v-559z" />
    <glyph glyph-name="K" unicode="K" horiz-adv-x="409" 
d="M399 0h-64l-138 352l-69 -136v-216h-59v712h59v-387l189 387h63l-146 -294z" />
    <glyph glyph-name="L" unicode="L" horiz-adv-x="339" 
d="M317 0h-248v712h59v-659h189v-53z" />
    <glyph glyph-name="M" unicode="M" horiz-adv-x="557" 
d="M488 0h-59v573l-130 -376h-43l-128 364v-561h-59v712h59l150 -419l151 419h59v-712z" />
    <glyph glyph-name="N" unicode="N" horiz-adv-x="454" 
d="M385 0h-58l-199 555v-555h-59v712h59l198 -555v555h59v-712z" />
    <glyph glyph-name="O" unicode="O" horiz-adv-x="421" 
d="M367 356q0 -171 -9 -229.5t-41 -92.5q-39 -42 -107 -42q-67 0 -106 42q-32 34 -41 92.5t-9 229.5t9 229.5t41 92.5q39 42 106 42q68 0 107 -42q32 -34 41 -92.5t9 -229.5zM308 356q0 157 -6 208.5t-28 76.5q-23 26 -64 26q-40 0 -63 -26q-22 -25 -28 -76.5t-6 -208.5
t6 -208.5t28 -76.5q23 -26 63 -26q41 0 64 26q22 25 28 76.5t6 208.5z" />
    <glyph glyph-name="P" unicode="P" horiz-adv-x="410" 
d="M363 513q0 -115 -40.5 -156.5t-113.5 -41.5h-81v-315h-59v712h140q73 0 113.5 -42t40.5 -157zM304 513q0 84 -25 115t-73 31h-78v-291h78q48 0 73 30.5t25 114.5z" />
    <glyph glyph-name="Q" unicode="Q" horiz-adv-x="421" 
d="M390 10l-30 -35l-56 46q-39 -29 -94 -29q-67 0 -106 42q-32 34 -41 92.5t-9 229.5t9 229.5t41 92.5q39 42 106 42q68 0 107 -42q32 -34 41 -92.5t9 -229.5q0 -151 -6 -209.5t-26 -89.5zM308 356q0 159 -6 209.5t-28 76.5q-22 25 -64 25q-41 0 -63 -25q-22 -26 -28 -76.5
t-6 -209.5t6 -209.5t28 -76.5q22 -25 63 -25q31 0 50 13l-56 48l30 35l54 -45q13 25 16.5 75t3.5 185z" />
    <glyph glyph-name="R" unicode="R" horiz-adv-x="432" 
d="M386 0h-63l-103 319h-92v-319h-59v712h140q74 0 114 -41t40 -156q0 -152 -88 -185zM304 515q0 73 -20.5 108.5t-72.5 35.5h-83v-287h83q52 0 72.5 35t20.5 108z" />
    <glyph glyph-name="S" unicode="S" horiz-adv-x="396" 
d="M350 186q0 -110 -44 -154q-38 -38 -111 -38q-74 0 -112 38q-24 25 -33 56t-9 90h59q0 -79 28 -107q24 -24 67 -24q46 0 68 24q28 30 28 113q0 68 -15 98t-60 48l-76 31q-55 22 -74.5 59.5t-19.5 118.5q0 95 49 141q40 38 104 38q68 0 107 -39q25 -25 34 -56.5t9 -81.5
h-59q0 67 -27 98q-23 26 -65 26q-39 0 -62 -23q-31 -31 -31 -102q0 -62 14.5 -87.5t62.5 -45.5l76 -31q55 -22 73.5 -64.5t18.5 -125.5z" />
    <glyph glyph-name="T" unicode="T" horiz-adv-x="341" 
d="M319 659h-119v-659h-59v659h-119v53h297v-53z" />
    <glyph glyph-name="U" unicode="U" horiz-adv-x="417" 
d="M356 148q0 -73 -42 -115q-43 -41 -105 -41t-105 41q-43 43 -43 115v564h59v-569q0 -45 25.5 -71.5t63.5 -26.5t63 26.5t25 71.5v569h59v-564z" />
    <glyph glyph-name="V" unicode="V" horiz-adv-x="370" 
d="M366 712l-152 -712h-58l-152 712h65l116 -606l116 606h65z" />
    <glyph glyph-name="W" unicode="W" horiz-adv-x="587" 
d="M583 712l-108 -712h-62l-119 607l-118 -607h-62l-110 712h65l76 -606l115 606h67l117 -606l75 606h64z" />
    <glyph glyph-name="X" unicode="X" horiz-adv-x="372" 
d="M353 0h-64l-103 308l-102 -308h-65l132 371l-121 341h65l91 -282l92 282h64l-124 -341z" />
    <glyph glyph-name="Y" unicode="Y" horiz-adv-x="315" 
d="M312 712l-125 -414v-298h-59v298l-125 414h65l89 -326l90 326h65z" />
    <glyph glyph-name="Z" unicode="Z" horiz-adv-x="324" 
d="M294 0h-264v46l203 613h-189v53h250v-46l-202 -613h202v-53z" />
    <glyph glyph-name="bracketleft" unicode="[" horiz-adv-x="236" 
d="M206 -74h-144v860h144v-48h-88v-764h88v-48z" />
    <glyph glyph-name="backslash" unicode="\" horiz-adv-x="246" 
d="M244 -74h-57l-185 860h57z" />
    <glyph glyph-name="bracketright" unicode="]" horiz-adv-x="236" 
d="M174 -74h-144v48h88v764h-88v48h144v-860z" />
    <glyph glyph-name="asciicircum" unicode="^" horiz-adv-x="448" 
d="M378 439h-57l-97 221l-97 -221h-58l129 279h52z" />
    <glyph glyph-name="underscore" unicode="_" horiz-adv-x="431" 
d="M431 -134h-431v44h431v-44z" />
    <glyph glyph-name="grave" unicode="`" horiz-adv-x="354" 
d="M204 586h-49l-74 130h58z" />
    <glyph glyph-name="a" unicode="a" horiz-adv-x="352" 
d="M294 0h-54v46q-10 -20 -28 -34q-27 -20 -61 -20q-48 0 -81 34q-33 35 -33 115q0 76 43 115q37 34 100 34h58v91q0 87 -70 87q-27 0 -46 -19q-23 -24 -23 -71h-56q0 68 37 105q34 34 88 34q61 0 91 -32q35 -37 35 -106v-379zM238 134v112h-56q-39 0 -62 -22
q-27 -27 -27 -82q0 -100 71 -100q33 0 53.5 26t20.5 66z" />
    <glyph glyph-name="b" unicode="b" horiz-adv-x="365" 
d="M321 254q0 -102 -7.5 -151t-30.5 -75q-31 -36 -80 -36q-34 0 -57 17q-20 14 -29 31v-40h-55v712h56v-242q12 19 28 30q23 17 57 17q49 0 80 -36q23 -26 30.5 -75.5t7.5 -151.5zM265 254q0 92 -5 131.5t-21 58.5q-19 23 -49 23q-29 0 -48 -19q-24 -22 -24 -70v-247
q0 -47 24 -70q19 -19 48 -19q30 0 49 22q16 19 21 58.5t5 131.5z" />
    <glyph glyph-name="c" unicode="c" horiz-adv-x="340" 
d="M303 134q-2 -75 -36 -109q-33 -33 -90 -33q-60 0 -94 40q-22 26 -30 76.5t-8 145.5t8 145.5t30 76.5q33 41 94 41q58 0 90 -32q34 -33 36 -111h-55q0 51 -20 72q-18 21 -50 21q-34 0 -52 -23q-16 -20 -20.5 -61t-4.5 -129t4.5 -128.5t20.5 -60.5q18 -23 52 -23
q29 0 49 20q21 22 21 72h55z" />
    <glyph glyph-name="d" unicode="d" horiz-adv-x="365" 
d="M303 0h-55v41q-8 -18 -28 -31q-25 -18 -58 -18q-48 0 -79 36q-22 25 -30 75.5t-8 150.5t8 150t30 77q29 36 79 36q36 0 58 -16q16 -12 27 -30v241h56v-712zM247 131v247q0 47 -23 70q-21 19 -49 19q-29 0 -48 -23q-16 -19 -21 -58.5t-5 -131.5t5 -131.5t21 -58.5
q19 -22 48 -22q28 0 49 19q23 23 23 70z" />
    <glyph glyph-name="e" unicode="e" horiz-adv-x="349" 
d="M309 246h-208q0 -85 5 -124t21 -57q19 -23 51 -23q33 0 52 20q22 23 22 72h55q0 -69 -37 -107q-34 -35 -92 -35q-57 0 -92 37q-24 26 -32.5 77.5t-8.5 147.5q0 98 8.5 149t32.5 77q34 37 91 37t91 -37q24 -27 32.5 -79t8.5 -155zM253 291q-1 125 -26 153q-19 23 -50 23
q-32 0 -51 -23q-24 -27 -25 -153h152z" />
    <glyph glyph-name="f" unicode="f" horiz-adv-x="237" 
d="M221 465h-87v-465h-56v465h-62v44h62v69q0 68 38 103q37 33 105 33v-51q-87 0 -87 -85v-69h87v-44z" />
    <glyph glyph-name="g" unicode="g" horiz-adv-x="365" 
d="M303 509v-524q0 -64 -8 -96.5t-30 -56.5q-35 -37 -91 -37q-58 0 -92 34q-35 36 -35 107h55q0 -51 22 -73q18 -19 49 -19t50 22q24 25 24 118v65q-9 -16 -27 -29q-25 -17 -57 -17q-48 0 -79 35q-23 26 -31 74.5t-8 147.5q0 100 8 148t31 73q31 36 79 36q33 0 58 -17
q17 -12 27 -30v39h55zM247 141v237q0 47 -23 70q-21 19 -49 19q-29 0 -48 -23q-16 -19 -21 -57t-5 -128t5 -128t21 -57q19 -22 48 -22q32 0 49 18q23 26 23 71z" />
    <glyph glyph-name="h" unicode="h" horiz-adv-x="373" 
d="M315 0h-56v383q0 40 -19.5 61.5t-50.5 21.5t-51 -21.5t-20 -61.5v-383h-56v712h56v-243q6 14 28 30q26 18 58 18q47 0 80 -35q31 -33 31 -100v-382z" />
    <glyph glyph-name="i" unicode="i" horiz-adv-x="181" 
d="M118 0h-56v509h56v-509zM126 626h-72v72h72v-72z" />
    <glyph glyph-name="j" unicode="j" horiz-adv-x="181" 
d="M118 -68q0 -68 -38 -103q-34 -32 -101 -32v50q83 0 83 86v576h56v-577zM126 626h-72v72h72v-72z" />
    <glyph glyph-name="k" unicode="k" horiz-adv-x="373" 
d="M357 0h-62l-110 265l-67 -106v-159h-56v712h56v-470l161 267h61l-120 -195z" />
    <glyph glyph-name="l" unicode="l" horiz-adv-x="212" 
d="M196 0q-67 0 -101 32q-38 35 -38 104v576h56v-576q0 -86 83 -86v-50z" />
    <glyph glyph-name="m" unicode="m" horiz-adv-x="570" 
d="M512 0h-56v383q0 40 -19.5 61.5t-50.5 21.5t-51 -21.5t-20 -61.5v-383h-56v383q0 40 -19.5 61.5t-50.5 21.5t-51 -21.5t-20 -61.5v-383h-56v509h55v-41q10 18 29 31q26 18 58 18q28 0 54 -15t41 -39q17 25 35 36q28 18 61 18q53 0 86 -35q31 -33 31 -100v-382z" />
    <glyph glyph-name="n" unicode="n" horiz-adv-x="373" 
d="M315 0h-56v383q0 40 -19.5 61.5t-50.5 21.5t-51 -21.5t-20 -61.5v-383h-56v509h55v-41q10 18 29 31q26 18 58 18q47 0 80 -35q31 -33 31 -100v-382z" />
    <glyph glyph-name="o" unicode="o" horiz-adv-x="353" 
d="M309 254q0 -95 -8 -145t-30 -77q-33 -40 -94 -40t-94 40q-22 27 -30 77t-8 145t8 145t30 77q33 41 94 41t94 -41q22 -27 30 -77t8 -145zM253 254q0 89 -5 129.5t-21 60.5q-19 23 -50 23q-32 0 -51 -23q-16 -20 -20.5 -60t-4.5 -130t4.5 -129.5t20.5 -59.5q19 -23 51 -23
q31 0 50 23q16 20 21 60t5 129z" />
    <glyph glyph-name="p" unicode="p" horiz-adv-x="366" 
d="M321 254q0 -100 -8 -150t-30 -76q-31 -36 -79 -36q-35 0 -58 16q-15 10 -28 30v-241h-56v712h55v-41q8 17 29 31q26 18 58 18q48 0 79 -36q22 -26 30 -76.5t8 -150.5zM265 254q0 92 -5 131.5t-21 58.5q-19 23 -49 23q-29 0 -48 -19q-24 -22 -24 -70v-247q0 -47 24 -70
q19 -19 48 -19q30 0 49 22q16 19 21 58.5t5 131.5z" />
    <glyph glyph-name="q" unicode="q" horiz-adv-x="365" 
d="M303 -203h-56v241q-13 -21 -27 -30q-25 -16 -58 -16q-46 0 -79 36q-23 26 -30.5 75.5t-7.5 150.5t7.5 151t30.5 76q31 36 79 36q33 0 58 -18q20 -13 28 -31v41h55v-712zM247 131v247q0 47 -23 70q-21 19 -49 19q-29 0 -48 -23q-16 -19 -21 -58.5t-5 -131.5t5 -131.5
t21 -58.5q19 -22 48 -22q28 0 49 19q23 23 23 70z" />
    <glyph glyph-name="r" unicode="r" horiz-adv-x="245" 
d="M229 464h-12q-45 0 -72 -26.5t-27 -72.5v-365h-56v509h55v-54q8 17 25 32q33 30 87 30v-53z" />
    <glyph glyph-name="s" unicode="s" horiz-adv-x="336" 
d="M303 130q0 -59 -40 -99q-39 -39 -97 -39q-57 0 -93 36q-40 41 -40 110h56q0 -49 26 -75q21 -21 51 -21q35 0 58 23t23 63q0 33 -14 55q-16 25 -51 44l-64 35q-46 26 -66 60q-14 27 -14 64q0 56 40 96q35 35 91 35q57 0 91 -34q37 -37 37 -110h-56q0 51 -22 74
q-19 20 -50 20q-34 0 -53 -19q-22 -21 -22 -60q0 -27 10 -44q9 -16 47 -38l63 -36q49 -27 69 -60t20 -80z" />
    <glyph glyph-name="t" unicode="t" horiz-adv-x="245" 
d="M225 0q-75 0 -109 32q-38 35 -38 104v329h-62v44h62v149h56v-149h87v-44h-87v-329q0 -86 91 -86v-50z" />
    <glyph glyph-name="u" unicode="u" horiz-adv-x="373" 
d="M311 0h-55v41q-10 -18 -29 -31q-26 -18 -58 -18q-48 0 -80 34q-31 33 -31 101v382h56v-383q0 -40 19.5 -61.5t50.5 -21.5t51 21.5t20 61.5v383h56v-509z" />
    <glyph glyph-name="v" unicode="v" horiz-adv-x="305" 
d="M301 509l-119 -509h-59l-119 509h62l87 -421l87 421h61z" />
    <glyph glyph-name="w" unicode="w" horiz-adv-x="474" 
d="M470 509l-99 -509h-60l-77 416l-73 -416h-60l-97 509h65l63 -421l74 421h56l78 -421l65 421h65z" />
    <glyph glyph-name="x" unicode="x" horiz-adv-x="321" 
d="M304 0h-62l-81 210l-82 -210h-62l112 259l-106 250h62l76 -202l75 202h62l-108 -250z" />
    <glyph glyph-name="y" unicode="y" horiz-adv-x="308" 
d="M301 509l-144 -608q-14 -57 -50.5 -80.5t-97.5 -23.5v50q76 0 93 65l23 90l-121 507h62l87 -420l87 420h61z" />
    <glyph glyph-name="z" unicode="z" horiz-adv-x="276" 
d="M255 0h-233v44l172 415h-162v50h223v-44l-172 -415h172v-50z" />
    <glyph glyph-name="braceleft" unicode="{" horiz-adv-x="287" 
d="M258 -74h-24q-52 0 -85 33q-34 34 -34 97v194q0 39 -19 60t-49 21h-17v50h17q30 0 49 21t19 60v194q0 63 34 97q33 33 85 33h24v-50h-18q-30 0 -49.5 -21.5t-19.5 -59.5v-191q0 -61 -30 -91q-10 -10 -27 -17q14 -4 27 -17q30 -32 30 -91v-191q0 -38 19.5 -59.5
t49.5 -21.5h18v-50z" />
    <glyph glyph-name="bar" unicode="|" horiz-adv-x="251" 
d="M153 -74h-56v860h56v-860z" />
    <glyph glyph-name="braceright" unicode="}" horiz-adv-x="287" 
d="M258 331h-18q-30 0 -49 -21t-19 -60v-194q0 -63 -34 -97q-33 -33 -85 -33h-23v50h17q30 0 49.5 21.5t19.5 59.5v191q0 60 31 91q11 11 26 17q-15 5 -26 17q-31 31 -31 91v191q0 38 -19.5 59.5t-49.5 21.5h-17v50h23q52 0 85 -33q34 -34 34 -97v-194q0 -39 19 -60t49 -21
h18v-50z" />
    <glyph glyph-name="asciitilde" unicode="~" horiz-adv-x="431" 
d="M385 283q-31 -31 -52 -42t-47 -11t-81 24q-41 19 -60 19q-17 0 -30 -7t-34 -28l-34 34q32 32 52 43t46 11q23 0 81 -25q38 -18 60 -18q18 0 31 6.5t34 27.5z" />
    <glyph glyph-name="uni00A0" unicode="&#xa0;" horiz-adv-x="194" 
 />
    <glyph glyph-name="exclamdown" unicode="&#xa1;" horiz-adv-x="227" 
d="M127 -203h-56v525h56v-525zM137 434h-75v75h75v-75z" />
    <glyph glyph-name="cent" unicode="&#xa2;" horiz-adv-x="342" 
d="M304 242q-2 -71 -35 -104q-26 -25 -68 -31v-107h-45v108q-44 6 -72 37q-22 25 -30 73t-8 139t8 139t30 73q28 31 72 37v106h45v-105q41 -5 67 -29q34 -33 36 -106h-55q0 48 -19 68q-11 12 -29 17v-400q16 5 27 16q21 21 21 69h55zM156 158v398q-17 -6 -28 -18
q-16 -19 -21 -57.5t-5 -123.5t5 -123.5t21 -57.5q11 -12 28 -18z" />
    <glyph glyph-name="sterling" unicode="&#xa3;" horiz-adv-x="393" 
d="M362 0h-263v351h-64v44h64v167q0 74 43.5 116t106.5 42q71 0 113 -50l-42 -38q-25 35 -71 35q-39 0 -65 -28t-26 -74v-170h91v-44h-91v-298h204v-53z" />
    <glyph glyph-name="currency" unicode="&#xa4;" horiz-adv-x="478" 
d="M432 113l-35 -35l-57 57q-45 -34 -101 -34t-101 34l-56 -57l-36 35l57 57q-34 45 -34 101q0 57 34 101l-57 56l36 35l56 -56q44 33 101 33t101 -33l57 56l35 -35l-57 -56q34 -44 34 -101q0 -56 -34 -101zM358 271q0 49 -34.5 83.5t-84.5 34.5q-49 0 -83.5 -34.5
t-34.5 -83.5q0 -50 34.5 -84.5t83.5 -34.5t84 35t35 84z" />
    <glyph glyph-name="yen" unicode="&#xa5;" horiz-adv-x="315" 
d="M310 712l-92 -309h51v-44h-64l-19 -61v-40h83v-44h-83v-214h-58v214h-83v44h83v40l-17 61h-66v44h52l-92 309h63l89 -326l90 326h63z" />
    <glyph glyph-name="brokenbar" unicode="&#xa6;" horiz-adv-x="251" 
d="M153 437h-56v348h56v-348zM153 -73h-56v348h56v-348z" />
    <glyph glyph-name="section" unicode="&#xa7;" horiz-adv-x="389" 
d="M330 271q0 -68 -8.5 -100.5t-31.5 -54.5q-23 -21 -55 -27q19 -11 27.5 -17t20 -17t19.5 -24q19 -32 19 -77q0 -60 -36 -97t-94 -37q-54 0 -90 36q-37 36 -37 97h56q0 -37 23 -63q17 -20 48 -20q34 0 53 21q20 20 20 61q0 36 -13 55q-14 22 -49 41l-66 37q-24 13 -37 26
q-25 25 -32.5 58.5t-7.5 101.5q0 67 9 100t32 55q21 21 54 27q-50 28 -69 61q-16 29 -16 71q0 57 38 93q34 34 90 34q52 0 86 -31q37 -36 39 -100h-56q0 37 -22 62q-19 19 -47 19q-31 0 -49 -18q-22 -21 -22 -56q0 -34 11 -51q12 -22 44 -40l66 -36q30 -16 44 -30
q25 -25 32 -56t7 -104zM274 271q0 59 -5 84.5t-21 41.5q-21 22 -54 22q-31 0 -52 -21q-15 -15 -21 -41t-6 -86q0 -57 6 -84t21 -42q21 -21 52 -21q33 0 54 21q15 17 20.5 43t5.5 83z" />
    <glyph glyph-name="dieresis" unicode="&#xa8;" horiz-adv-x="354" 
d="M278 606h-64v63h64v-63zM140 606h-63v63h63v-63z" />
    <glyph glyph-name="copyright" unicode="&#xa9;" horiz-adv-x="862" 
d="M793 356q0 -150 -106 -256t-256 -106t-256 106t-106 256t106 256t256 106t256 -106t106 -256zM747 356q0 133 -92.5 227t-223.5 94t-224 -94t-93 -227t93 -227t224 -94t223.5 94t92.5 227zM525 262q0 -58 -27 -85q-25 -26 -67 -26t-69 30q-17 20 -23 58t-6 117t6 117
t23 58q27 30 69 30t67 -26q27 -28 27 -86h-42q0 42 -16 58q-15 15 -36 15q-22 0 -37 -17q-19 -23 -19 -149q0 -72 3.5 -103.5t15.5 -45.5q15 -17 37 -17q21 0 36 15q16 16 16 57h42z" />
    <glyph glyph-name="ordfeminine" unicode="&#xaa;" horiz-adv-x="297" 
d="M246 320h-45v33q-7 -12 -23 -25q-21 -14 -50 -14q-39 0 -67 28q-28 30 -28 87q0 55 39 89q28 25 80 25h46v66q0 29 -14.5 47.5t-41.5 18.5q-23 0 -39 -16q-17 -18 -17 -56h-47q0 56 30 86q27 27 73 27t74 -28q30 -30 30 -82v-286zM198 431v75h-45q-31 0 -48 -15
q-24 -24 -24 -61q0 -75 58 -75q26 0 42.5 21.5t16.5 54.5z" />
    <glyph glyph-name="guillemotleft" unicode="&#xab;" horiz-adv-x="371" 
d="M316 58l-136 210l136 210v-96l-76 -114l76 -115v-95zM164 58l-135 210l135 210v-96l-75 -114l75 -115v-95z" />
    <glyph glyph-name="logicalnot" unicode="&#xac;" horiz-adv-x="431" 
d="M381 151h-53v104h-278v53h331v-157z" />
    <glyph glyph-name="uni00AD" unicode="&#xad;" horiz-adv-x="301" 
d="M246 251h-191v53h191v-53z" />
    <glyph glyph-name="registered" unicode="&#xae;" horiz-adv-x="862" 
d="M793 356q0 -150 -106 -256t-256 -106t-256 106t-106 256t106 256t256 106t256 -106t106 -256zM747 356q0 133 -92.5 227t-223.5 94t-224 -94t-93 -227t93 -227t224 -94t223.5 94t92.5 227zM543 157h-45l-54 174h-58v-174h-43v399h98q39 0 64 -23q26 -26 26 -90
q0 -37 -5.5 -55.5t-20.5 -33.5q-7 -7 -21 -14zM489 443q0 44 -15 60q-13 13 -32 13h-56v-146h56q19 0 32 13q15 16 15 60z" />
    <glyph glyph-name="macron" unicode="&#xaf;" horiz-adv-x="354" 
d="M283 611h-212v45h212v-45z" />
    <glyph glyph-name="degree" unicode="&#xb0;" horiz-adv-x="382" 
d="M327 585q0 -56 -40 -96t-96 -40t-95.5 40t-39.5 96t39.5 95.5t95.5 39.5t96 -39.5t40 -95.5zM277 585q0 37 -24.5 62t-61.5 25t-61.5 -25t-24.5 -62q0 -38 24.5 -63t61.5 -25t61.5 25t24.5 63z" />
    <glyph glyph-name="plusminus" unicode="&#xb1;" horiz-adv-x="431" 
d="M383 286h-141v-141h-53v141h-140v53h140v141h53v-141h141v-53zM383 36h-334v53h334v-53z" />
    <glyph glyph-name="twosuperior" unicode="&#xb2;" 
d="M242 285h-204v37l137 218q24 39 24 79q0 27 -16.5 43.5t-43.5 16.5q-59 0 -59 -69v-18h-43v17q0 55 27 81q29 27 75 27q43 0 73 -24t30 -74q0 -49 -30 -98l-124 -198h154v-38z" />
    <glyph glyph-name="threesuperior" unicode="&#xb3;" 
d="M245 399q0 -37 -6.5 -57t-23.5 -36q-26 -26 -75 -26q-48 0 -77 27q-25 27 -25 85v13h43v-13q0 -44 18 -59q15 -15 41 -15q27 0 42 15q20 20 20 67q0 48 -17 68q-16 19 -45 19h-29v38h29q23 0 40 14q19 18 19 68q0 42 -19 58q-13 14 -40 14t-42 -15q-16 -16 -16 -54v-13
h-43v12q0 57 25 81q30 27 76 27t74 -26q28 -27 28 -84q0 -48 -18 -72q-16 -20 -39 -29q27 -8 42 -31q18 -25 18 -76z" />
    <glyph glyph-name="acute" unicode="&#xb4;" horiz-adv-x="354" 
d="M273 716l-75 -130h-49l66 130h58z" />
    <glyph glyph-name="mu" unicode="&#xb5;" horiz-adv-x="378" 
d="M315 0h-55v41q-10 -18 -29 -31q-26 -18 -58 -18q-41 0 -56 21v-217h-55v713h56v-384q0 -40 19.5 -61.5t50.5 -21.5t51 21.5t20 61.5v384h56v-509z" />
    <glyph glyph-name="paragraph" unicode="&#xb6;" horiz-adv-x="538" 
d="M475 -204h-56v864h-120v-864h-56v511h-56q-141 0 -141 202q0 203 141 203h288v-916z" />
    <glyph glyph-name="periodcentered" unicode="&#xb7;" horiz-adv-x="259" 
d="M191 245h-123v123h123v-123z" />
    <glyph glyph-name="cedilla" unicode="&#xb8;" horiz-adv-x="354" 
d="M209 -37l-46 -134h-53l53 134h46z" />
    <glyph glyph-name="onesuperior" unicode="&#xb9;" 
d="M174 285h-43v379l-69 -47v47l69 48h43v-427z" />
    <glyph glyph-name="ordmasculine" unicode="&#xba;" horiz-adv-x="296" 
d="M254 515q0 -137 -31 -170q-28 -31 -75 -31q-48 0 -76 31q-18 19 -24 58t-6 112t6 112t24 58q27 30 76 30q48 0 75 -30q31 -33 31 -170zM207 515q0 116 -21 142q-13 16 -38 16q-26 0 -39 -16q-20 -25 -20 -142q0 -119 20 -143q13 -16 39 -16q25 0 38 16q21 26 21 143z" />
    <glyph glyph-name="guillemotright" unicode="&#xbb;" horiz-adv-x="371" 
d="M342 268l-136 -210v95l76 115l-76 114v96zM191 268l-136 -210v95l76 115l-76 114v96z" />
    <glyph glyph-name="onequarter" unicode="&#xbc;" horiz-adv-x="708" 
d="M174 285h-43v379l-69 -47v47l69 48h43v-427zM501 712l-247 -712h-47l247 712h47zM682 64h-32v-64h-43v64h-148v38l125 325h43l-124 -325h104v103h43v-103h32v-38z" />
    <glyph glyph-name="onehalf" unicode="&#xbd;" horiz-adv-x="708" 
d="M174 285h-43v379l-69 -47v47l69 48h43v-427zM501 712l-247 -712h-47l247 712h47zM673 0h-204v37l137 218q24 39 24 79q0 27 -16.5 43.5t-43.5 16.5q-59 0 -59 -69v-18h-43v17q0 55 27 81q29 27 75 27q43 0 73 -24t30 -74q0 -49 -30 -98l-124 -198h154v-38z" />
    <glyph glyph-name="threequarters" unicode="&#xbe;" horiz-adv-x="708" 
d="M245 399q0 -37 -6.5 -57t-23.5 -36q-26 -26 -75 -26q-48 0 -77 27q-25 27 -25 85v13h43v-13q0 -44 18 -59q15 -15 41 -15q27 0 42 15q20 20 20 67q0 48 -17 68q-16 19 -45 19h-29v38h29q23 0 40 14q19 18 19 68q0 42 -19 58q-13 14 -40 14t-42 -15q-16 -16 -16 -54v-13
h-43v12q0 57 25 81q30 27 76 27t74 -26q28 -27 28 -84q0 -48 -18 -72q-16 -20 -39 -29q27 -8 42 -31q18 -25 18 -76zM501 712l-247 -712h-47l247 712h47zM682 64h-32v-64h-43v64h-148v38l125 325h43l-124 -325h104v103h43v-103h32v-38z" />
    <glyph glyph-name="questiondown" unicode="&#xbf;" horiz-adv-x="375" 
d="M317 -53q0 -81 -39 -119q-37 -37 -96 -37q-63 0 -99 37q-40 41 -40 134q0 69 29 115l58 93q21 32 21 74v78h56v-85q0 -45 -24 -83l-58 -92q-26 -41 -26 -101q0 -68 28 -98q20 -22 55 -22q32 0 53 21q26 26 26 85h56zM217 434h-75v75h75v-75z" />
    <glyph glyph-name="Agrave" unicode="&#xc0;" horiz-adv-x="379" 
d="M374 0h-63l-39 195h-166l-38 -195h-64l159 712h55zM261 248l-72 358l-71 -358h143zM219 764h-49l-75 130h59z" />
    <glyph glyph-name="Aacute" unicode="&#xc1;" horiz-adv-x="379" 
d="M374 0h-63l-39 195h-166l-38 -195h-64l159 712h55zM261 248l-72 358l-71 -358h143zM288 894l-75 -130h-49l65 130h59z" />
    <glyph glyph-name="Acircumflex" unicode="&#xc2;" horiz-adv-x="379" 
d="M374 0h-63l-39 195h-166l-38 -195h-64l159 712h55zM261 248l-72 358l-71 -358h143zM303 764h-52l-59 92l-60 -92h-52l87 130h50z" />
    <glyph glyph-name="Atilde" unicode="&#xc3;" horiz-adv-x="379" 
d="M374 0h-63l-39 195h-166l-38 -195h-64l159 712h55zM261 248l-72 358l-71 -358h143zM311 813q-39 -38 -71 -38q-23 0 -54 17q-25 16 -42 16q-19 0 -43 -24l-28 29q38 38 70 38q26 0 54 -17q27 -16 42 -16q19 0 43 24z" />
    <glyph glyph-name="Adieresis" unicode="&#xc4;" horiz-adv-x="379" 
d="M374 0h-63l-39 195h-166l-38 -195h-64l159 712h55zM261 248l-72 358l-71 -358h143zM292 784h-63v63h63v-63zM154 784h-63v63h63v-63z" />
    <glyph glyph-name="Aring" unicode="&#xc5;" horiz-adv-x="379" 
d="M374 0h-63l-39 195h-166l-38 -195h-64l159 712h55zM261 248l-72 358l-71 -358h143zM283 842q0 -37 -27 -64t-64 -27q-38 0 -64.5 26.5t-26.5 64.5t26.5 64.5t64.5 26.5q37 0 64 -27t27 -64zM244 842q0 22 -15.5 37t-36.5 15q-22 0 -37.5 -15t-15.5 -37t15.5 -37.5
t37.5 -15.5q21 0 36.5 15.5t15.5 37.5z" />
    <glyph glyph-name="AE" unicode="&#xc6;" horiz-adv-x="604" 
d="M558 0h-249v197h-168l-72 -197h-64l265 712h288v-53h-190v-276h164v-53h-164v-277h190v-53zM309 250v410l-149 -410h149z" />
    <glyph glyph-name="Ccedilla" unicode="&#xc7;" horiz-adv-x="399" 
d="M358 163q-2 -93 -50 -137q-37 -34 -98 -34q-67 0 -106 42q-32 34 -41 92.5t-9 229.5t9 229.5t41 92.5q39 42 106 42q64 0 102 -38q44 -44 46 -133h-59q0 65 -28 94q-22 24 -61 24q-40 0 -63 -26q-22 -25 -28 -76.5t-6 -208.5t6 -208.5t28 -76.5q23 -26 63 -26q39 0 61 24
q28 29 28 94h59zM236 -37l-46 -134h-53l53 134h46z" />
    <glyph glyph-name="Egrave" unicode="&#xc8;" horiz-adv-x="364" 
d="M317 0h-248v712h248v-53h-189v-276h163v-53h-163v-277h189v-53zM225 764h-49l-75 130h59z" />
    <glyph glyph-name="Eacute" unicode="&#xc9;" horiz-adv-x="364" 
d="M317 0h-248v712h248v-53h-189v-276h163v-53h-163v-277h189v-53zM294 894l-75 -130h-49l65 130h59z" />
    <glyph glyph-name="Ecircumflex" unicode="&#xca;" horiz-adv-x="364" 
d="M317 0h-248v712h248v-53h-189v-276h163v-53h-163v-277h189v-53zM309 764h-52l-59 92l-60 -92h-52l87 130h50z" />
    <glyph glyph-name="Edieresis" unicode="&#xcb;" horiz-adv-x="364" 
d="M317 0h-248v712h248v-53h-189v-276h163v-53h-163v-277h189v-53zM298 784h-63v63h63v-63zM160 784h-63v63h63v-63z" />
    <glyph glyph-name="Igrave" unicode="&#xcc;" horiz-adv-x="197" 
d="M128 0h-59v712h59v-712zM126 764h-49l-75 130h59z" />
    <glyph glyph-name="Iacute" unicode="&#xcd;" horiz-adv-x="197" 
d="M128 0h-59v712h59v-712zM195 894l-75 -130h-49l65 130h59z" />
    <glyph glyph-name="Icircumflex" unicode="&#xce;" horiz-adv-x="197" 
d="M128 0h-59v712h59v-712zM210 764h-52l-59 92l-60 -92h-52l87 130h50z" />
    <glyph glyph-name="Idieresis" unicode="&#xcf;" horiz-adv-x="197" 
d="M128 0h-59v712h59v-712zM199 784h-63v63h63v-63zM61 784h-63v63h63v-63z" />
    <glyph glyph-name="Eth" unicode="&#xd0;" horiz-adv-x="429" 
d="M375 356q0 -166 -8.5 -223.5t-41.5 -91.5q-39 -41 -105 -41h-147v332h-53v49h53v331h147q66 0 105 -41q33 -34 41.5 -91.5t8.5 -223.5zM316 356q0 155 -6 204t-29 74t-64 25h-85v-278h91v-49h-91v-279h85q41 0 64 25t29 74t6 204z" />
    <glyph glyph-name="Ntilde" unicode="&#xd1;" horiz-adv-x="454" 
d="M385 0h-58l-199 555v-555h-59v712h59l198 -555v555h59v-712zM346 813q-39 -38 -71 -38q-23 0 -54 17q-25 16 -42 16q-19 0 -43 -24l-28 29q38 38 70 38q26 0 54 -17q27 -16 42 -16q19 0 43 24z" />
    <glyph glyph-name="Ograve" unicode="&#xd2;" horiz-adv-x="421" 
d="M367 356q0 -171 -9 -229.5t-41 -92.5q-39 -42 -107 -42q-67 0 -106 42q-32 34 -41 92.5t-9 229.5t9 229.5t41 92.5q39 42 106 42q68 0 107 -42q32 -34 41 -92.5t9 -229.5zM308 356q0 157 -6 208.5t-28 76.5q-23 26 -64 26q-40 0 -63 -26q-22 -25 -28 -76.5t-6 -208.5
t6 -208.5t28 -76.5q23 -26 63 -26q41 0 64 26q22 25 28 76.5t6 208.5zM238 764h-49l-75 130h59z" />
    <glyph glyph-name="Oacute" unicode="&#xd3;" horiz-adv-x="421" 
d="M367 356q0 -171 -9 -229.5t-41 -92.5q-39 -42 -107 -42q-67 0 -106 42q-32 34 -41 92.5t-9 229.5t9 229.5t41 92.5q39 42 106 42q68 0 107 -42q32 -34 41 -92.5t9 -229.5zM308 356q0 157 -6 208.5t-28 76.5q-23 26 -64 26q-40 0 -63 -26q-22 -25 -28 -76.5t-6 -208.5
t6 -208.5t28 -76.5q23 -26 63 -26q41 0 64 26q22 25 28 76.5t6 208.5zM307 894l-75 -130h-49l65 130h59z" />
    <glyph glyph-name="Ocircumflex" unicode="&#xd4;" horiz-adv-x="421" 
d="M367 356q0 -171 -9 -229.5t-41 -92.5q-39 -42 -107 -42q-67 0 -106 42q-32 34 -41 92.5t-9 229.5t9 229.5t41 92.5q39 42 106 42q68 0 107 -42q32 -34 41 -92.5t9 -229.5zM308 356q0 157 -6 208.5t-28 76.5q-23 26 -64 26q-40 0 -63 -26q-22 -25 -28 -76.5t-6 -208.5
t6 -208.5t28 -76.5q23 -26 63 -26q41 0 64 26q22 25 28 76.5t6 208.5zM322 764h-52l-59 92l-60 -92h-52l87 130h50z" />
    <glyph glyph-name="Otilde" unicode="&#xd5;" horiz-adv-x="421" 
d="M367 356q0 -171 -9 -229.5t-41 -92.5q-39 -42 -107 -42q-67 0 -106 42q-32 34 -41 92.5t-9 229.5t9 229.5t41 92.5q39 42 106 42q68 0 107 -42q32 -34 41 -92.5t9 -229.5zM308 356q0 157 -6 208.5t-28 76.5q-23 26 -64 26q-40 0 -63 -26q-22 -25 -28 -76.5t-6 -208.5
t6 -208.5t28 -76.5q23 -26 63 -26q41 0 64 26q22 25 28 76.5t6 208.5zM330 813q-39 -38 -71 -38q-23 0 -54 17q-25 16 -42 16q-19 0 -43 -24l-28 29q38 38 70 38q26 0 54 -17q27 -16 42 -16q19 0 43 24z" />
    <glyph glyph-name="Odieresis" unicode="&#xd6;" horiz-adv-x="421" 
d="M367 356q0 -171 -9 -229.5t-41 -92.5q-39 -42 -107 -42q-67 0 -106 42q-32 34 -41 92.5t-9 229.5t9 229.5t41 92.5q39 42 106 42q68 0 107 -42q32 -34 41 -92.5t9 -229.5zM308 356q0 157 -6 208.5t-28 76.5q-23 26 -64 26q-40 0 -63 -26q-22 -25 -28 -76.5t-6 -208.5
t6 -208.5t28 -76.5q23 -26 63 -26q41 0 64 26q22 25 28 76.5t6 208.5zM311 784h-63v63h63v-63zM173 784h-63v63h63v-63z" />
    <glyph glyph-name="multiply" unicode="&#xd7;" horiz-adv-x="431" 
d="M370 152l-37 -37l-117 118l-118 -118l-36 37l117 117l-117 118l36 36l118 -117l117 117l37 -36l-118 -118z" />
    <glyph glyph-name="Oslash" unicode="&#xd8;" horiz-adv-x="405" 
d="M367 356q0 -171 -9 -229.5t-41 -92.5q-39 -42 -107 -42q-45 0 -79 20l-17 -56h-50l29 90q-25 32 -32 92.5t-7 217.5q0 171 9 229.5t41 92.5q39 42 106 42q47 0 80 -21l17 57h50l-28 -91q24 -32 31 -92.5t7 -216.5zM272 644q-21 23 -62 23q-40 0 -63 -26
q-22 -25 -28 -76.5t-6 -208.5q0 -184 11 -226zM308 356q0 181 -10 225l-149 -513q20 -23 61 -23t64 26q22 25 28 76.5t6 208.5z" />
    <glyph glyph-name="Ugrave" unicode="&#xd9;" horiz-adv-x="417" 
d="M356 148q0 -73 -42 -115q-43 -41 -105 -41t-105 41q-43 43 -43 115v564h59v-569q0 -45 25.5 -71.5t63.5 -26.5t63 26.5t25 71.5v569h59v-564zM237 764h-49l-75 130h59z" />
    <glyph glyph-name="Uacute" unicode="&#xda;" horiz-adv-x="417" 
d="M356 148q0 -73 -42 -115q-43 -41 -105 -41t-105 41q-43 43 -43 115v564h59v-569q0 -45 25.5 -71.5t63.5 -26.5t63 26.5t25 71.5v569h59v-564zM306 894l-75 -130h-49l65 130h59z" />
    <glyph glyph-name="Ucircumflex" unicode="&#xdb;" horiz-adv-x="417" 
d="M356 148q0 -73 -42 -115q-43 -41 -105 -41t-105 41q-43 43 -43 115v564h59v-569q0 -45 25.5 -71.5t63.5 -26.5t63 26.5t25 71.5v569h59v-564zM321 764h-52l-59 92l-60 -92h-52l87 130h50z" />
    <glyph glyph-name="Udieresis" unicode="&#xdc;" horiz-adv-x="417" 
d="M356 148q0 -73 -42 -115q-43 -41 -105 -41t-105 41q-43 43 -43 115v564h59v-569q0 -45 25.5 -71.5t63.5 -26.5t63 26.5t25 71.5v569h59v-564zM310 784h-63v63h63v-63zM172 784h-63v63h63v-63z" />
    <glyph glyph-name="Yacute" unicode="&#xdd;" horiz-adv-x="315" 
d="M312 712l-125 -414v-298h-59v298l-125 414h65l89 -326l90 326h65zM257 894l-75 -130h-49l65 130h59z" />
    <glyph glyph-name="Thorn" unicode="&#xde;" horiz-adv-x="409" 
d="M363 360q0 -115 -40.5 -157t-113.5 -42h-81v-161h-59v712h59v-154h81q73 0 113.5 -41.5t40.5 -156.5zM304 359q0 84 -24.5 115t-72.5 31h-79v-291h79q48 0 72.5 30.5t24.5 114.5z" />
    <glyph glyph-name="germandbls" unicode="&#xdf;" horiz-adv-x="373" 
d="M328 224q0 -83 -7 -123.5t-33 -66.5q-34 -34 -99 -34v50q38 0 59 21q24 24 24 156q0 126 -24 153q-18 22 -50 22h-9v48h7q26 0 42 19q24 27 24 93q0 61 -22 87q-20 21 -51 21t-51 -22t-20 -62v-586h-56v584q0 65 36 101q37 35 91 35q57 0 91 -34q22 -23 30 -49.5t8 -72.5
q0 -65 -19 -99q-13 -22 -34 -36q17 -8 30 -25q20 -22 26.5 -58t6.5 -122z" />
    <glyph glyph-name="agrave" unicode="&#xe0;" horiz-adv-x="352" 
d="M294 0h-54v46q-10 -20 -28 -34q-27 -20 -61 -20q-48 0 -81 34q-33 35 -33 115q0 76 43 115q37 34 100 34h58v91q0 87 -70 87q-27 0 -46 -19q-23 -24 -23 -71h-56q0 68 37 105q34 34 88 34q61 0 91 -32q35 -37 35 -106v-379zM238 134v112h-56q-39 0 -62 -22
q-27 -27 -27 -82q0 -100 71 -100q33 0 53.5 26t20.5 66zM202 586h-49l-75 130h58z" />
    <glyph glyph-name="aacute" unicode="&#xe1;" horiz-adv-x="352" 
d="M294 0h-54v46q-10 -20 -28 -34q-27 -20 -61 -20q-48 0 -81 34q-33 35 -33 115q0 76 43 115q37 34 100 34h58v91q0 87 -70 87q-27 0 -46 -19q-23 -24 -23 -71h-56q0 68 37 105q34 34 88 34q61 0 91 -32q35 -37 35 -106v-379zM238 134v112h-56q-39 0 -62 -22
q-27 -27 -27 -82q0 -100 71 -100q33 0 53.5 26t20.5 66zM268 716l-74 -130h-49l65 130h58z" />
    <glyph glyph-name="acircumflex" unicode="&#xe2;" horiz-adv-x="352" 
d="M294 0h-54v46q-10 -20 -28 -34q-27 -20 -61 -20q-48 0 -81 34q-33 35 -33 115q0 76 43 115q37 34 100 34h58v91q0 87 -70 87q-27 0 -46 -19q-23 -24 -23 -71h-56q0 68 37 105q34 34 88 34q61 0 91 -32q35 -37 35 -106v-379zM238 134v112h-56q-39 0 -62 -22
q-27 -27 -27 -82q0 -100 71 -100q33 0 53.5 26t20.5 66zM283 586h-51l-60 92l-60 -92h-52l87 130h50z" />
    <glyph glyph-name="atilde" unicode="&#xe3;" horiz-adv-x="352" 
d="M294 0h-54v46q-10 -20 -28 -34q-27 -20 -61 -20q-48 0 -81 34q-33 35 -33 115q0 76 43 115q37 34 100 34h58v91q0 87 -70 87q-27 0 -46 -19q-23 -24 -23 -71h-56q0 68 37 105q34 34 88 34q61 0 91 -32q35 -37 35 -106v-379zM238 134v112h-56q-39 0 -62 -22
q-27 -27 -27 -82q0 -100 71 -100q33 0 53.5 26t20.5 66zM292 635q-39 -38 -71 -38q-23 0 -54 17q-25 16 -42 16q-19 0 -43 -24l-28 29q38 38 70 38q26 0 54 -17q27 -16 42 -16q19 0 43 24z" />
    <glyph glyph-name="adieresis" unicode="&#xe4;" horiz-adv-x="352" 
d="M294 0h-54v46q-10 -20 -28 -34q-27 -20 -61 -20q-48 0 -81 34q-33 35 -33 115q0 76 43 115q37 34 100 34h58v91q0 87 -70 87q-27 0 -46 -19q-23 -24 -23 -71h-56q0 68 37 105q34 34 88 34q61 0 91 -32q35 -37 35 -106v-379zM238 134v112h-56q-39 0 -62 -22
q-27 -27 -27 -82q0 -100 71 -100q33 0 53.5 26t20.5 66zM272 606h-63v63h63v-63zM135 606h-64v63h64v-63z" />
    <glyph glyph-name="aring" unicode="&#xe5;" horiz-adv-x="352" 
d="M294 0h-54v46q-10 -20 -28 -34q-27 -20 -61 -20q-48 0 -81 34q-33 35 -33 115q0 76 43 115q37 34 100 34h58v91q0 87 -70 87q-27 0 -46 -19q-23 -24 -23 -71h-56q0 68 37 105q34 34 88 34q61 0 91 -32q35 -37 35 -106v-379zM238 134v112h-56q-39 0 -62 -22
q-27 -27 -27 -82q0 -100 71 -100q33 0 53.5 26t20.5 66zM263 672q0 -38 -26.5 -64.5t-64.5 -26.5t-64.5 26.5t-26.5 64.5t26.5 64.5t64.5 26.5t64.5 -26.5t26.5 -64.5zM224 672q0 22 -15.5 37.5t-36.5 15.5q-22 0 -37.5 -15.5t-15.5 -37.5q0 -21 15.5 -36.5t37.5 -15.5
q21 0 36.5 15.5t15.5 36.5z" />
    <glyph glyph-name="ae" unicode="&#xe6;" horiz-adv-x="544" 
d="M502 246h-208q0 -83 5 -122.5t21 -58.5q19 -23 52 -23q31 0 51 20q22 22 22 72h55q0 -69 -37 -107q-34 -35 -91 -35q-51 0 -83 30q-20 20 -31 45q-14 -36 -36 -52q-30 -23 -71 -23q-48 0 -81 34q-33 35 -33 115q0 76 43 115q37 34 100 34h58v91q0 87 -70 87
q-29 0 -46 -19q-23 -23 -23 -71h-56q0 68 37 105q34 34 88 34t84 -28q11 -11 18 -25q7 11 15 19q32 34 85 34q57 0 91 -37q24 -27 32.5 -79t8.5 -155zM238 134v112h-56q-40 0 -62 -22q-27 -25 -27 -82q0 -100 71 -100q33 0 53.5 26t20.5 66zM446 291q-1 70 -6 103.5
t-20 49.5q-19 23 -50 23q-32 0 -51 -23q-24 -27 -25 -153h152z" />
    <glyph glyph-name="ccedilla" unicode="&#xe7;" horiz-adv-x="340" 
d="M303 134q-2 -75 -36 -109q-33 -33 -90 -33q-60 0 -94 40q-22 26 -30 76.5t-8 145.5t8 145.5t30 76.5q33 41 94 41q58 0 90 -32q34 -33 36 -111h-55q0 51 -20 72q-18 21 -50 21q-34 0 -52 -23q-16 -20 -20.5 -61t-4.5 -129t4.5 -128.5t20.5 -60.5q18 -23 52 -23
q29 0 49 20q21 22 21 72h55zM209 -37l-46 -134h-53l53 134h46z" />
    <glyph glyph-name="egrave" unicode="&#xe8;" horiz-adv-x="349" 
d="M309 246h-208q0 -85 5 -124t21 -57q19 -23 51 -23q33 0 52 20q22 23 22 72h55q0 -69 -37 -107q-34 -35 -92 -35q-57 0 -92 37q-24 26 -32.5 77.5t-8.5 147.5q0 98 8.5 149t32.5 77q34 37 91 37t91 -37q24 -27 32.5 -79t8.5 -155zM253 291q-1 125 -26 153q-19 23 -50 23
q-32 0 -51 -23q-24 -27 -25 -153h152zM207 586h-49l-75 130h58z" />
    <glyph glyph-name="eacute" unicode="&#xe9;" horiz-adv-x="349" 
d="M309 246h-208q0 -85 5 -124t21 -57q19 -23 51 -23q33 0 52 20q22 23 22 72h55q0 -69 -37 -107q-34 -35 -92 -35q-57 0 -92 37q-24 26 -32.5 77.5t-8.5 147.5q0 98 8.5 149t32.5 77q34 37 91 37t91 -37q24 -27 32.5 -79t8.5 -155zM253 291q-1 125 -26 153q-19 23 -50 23
q-32 0 -51 -23q-24 -27 -25 -153h152zM273 716l-74 -130h-49l65 130h58z" />
    <glyph glyph-name="ecircumflex" unicode="&#xea;" horiz-adv-x="349" 
d="M309 246h-208q0 -85 5 -124t21 -57q19 -23 51 -23q33 0 52 20q22 23 22 72h55q0 -69 -37 -107q-34 -35 -92 -35q-57 0 -92 37q-24 26 -32.5 77.5t-8.5 147.5q0 98 8.5 149t32.5 77q34 37 91 37t91 -37q24 -27 32.5 -79t8.5 -155zM253 291q-1 125 -26 153q-19 23 -50 23
q-32 0 -51 -23q-24 -27 -25 -153h152zM288 586h-51l-60 92l-60 -92h-52l87 130h50z" />
    <glyph glyph-name="edieresis" unicode="&#xeb;" horiz-adv-x="349" 
d="M309 246h-208q0 -85 5 -124t21 -57q19 -23 51 -23q33 0 52 20q22 23 22 72h55q0 -69 -37 -107q-34 -35 -92 -35q-57 0 -92 37q-24 26 -32.5 77.5t-8.5 147.5q0 98 8.5 149t32.5 77q34 37 91 37t91 -37q24 -27 32.5 -79t8.5 -155zM253 291q-1 125 -26 153q-19 23 -50 23
q-32 0 -51 -23q-24 -27 -25 -153h152zM277 606h-63v63h63v-63zM140 606h-64v63h64v-63z" />
    <glyph glyph-name="igrave" unicode="&#xec;" horiz-adv-x="181" 
d="M119 0h-56v509h56v-509zM119 586h-49l-75 130h58z" />
    <glyph glyph-name="iacute" unicode="&#xed;" horiz-adv-x="181" 
d="M119 0h-56v509h56v-509zM187 716l-74 -130h-49l65 130h58z" />
    <glyph glyph-name="icircumflex" unicode="&#xee;" horiz-adv-x="181" 
d="M119 0h-56v509h56v-509zM202 586h-51l-60 92l-60 -92h-52l87 130h50z" />
    <glyph glyph-name="idieresis" unicode="&#xef;" horiz-adv-x="181" 
d="M119 0h-56v509h56v-509zM191 606h-63v63h63v-63zM54 606h-64v63h64v-63z" />
    <glyph glyph-name="eth" unicode="&#xf0;" horiz-adv-x="355" 
d="M309 249q0 -94 -8 -143t-30 -75q-33 -39 -94 -39t-94 39q-22 26 -30 75t-8 143q0 98 8 147t30 74q32 35 85 35q33 0 55 -14l-32 91h-82v44h67l-33 86h57l32 -86h72v-44h-57l39 -115q23 -70 23 -218zM253 250q0 89 -4.5 127.5t-20.5 57.5q-19 22 -51 22q-31 0 -50 -22
q-16 -19 -21 -58.5t-5 -126.5t5 -127t21 -59q19 -22 50 -22q32 0 51 22q16 19 20.5 58t4.5 128z" />
    <glyph glyph-name="ntilde" unicode="&#xf1;" horiz-adv-x="373" 
d="M315 0h-56v383q0 40 -19.5 61.5t-50.5 21.5t-51 -21.5t-20 -61.5v-383h-56v509h55v-41q10 18 29 31q26 18 58 18q47 0 80 -35q31 -33 31 -100v-382zM310 635q-39 -38 -71 -38q-23 0 -54 17q-25 16 -42 16q-19 0 -43 -24l-28 29q38 38 70 38q26 0 54 -17q27 -16 42 -16
q19 0 43 24z" />
    <glyph glyph-name="ograve" unicode="&#xf2;" horiz-adv-x="353" 
d="M309 254q0 -95 -8 -145t-30 -77q-33 -40 -94 -40t-94 40q-22 27 -30 77t-8 145t8 145t30 77q33 41 94 41t94 -41q22 -27 30 -77t8 -145zM253 254q0 89 -5 129.5t-21 60.5q-19 23 -50 23q-32 0 -51 -23q-16 -20 -20.5 -60t-4.5 -130t4.5 -129.5t20.5 -59.5q19 -23 51 -23
q31 0 50 23q16 20 21 60t5 129zM207 586h-49l-75 130h58z" />
    <glyph glyph-name="oacute" unicode="&#xf3;" horiz-adv-x="353" 
d="M309 254q0 -95 -8 -145t-30 -77q-33 -40 -94 -40t-94 40q-22 27 -30 77t-8 145t8 145t30 77q33 41 94 41t94 -41q22 -27 30 -77t8 -145zM253 254q0 89 -5 129.5t-21 60.5q-19 23 -50 23q-32 0 -51 -23q-16 -20 -20.5 -60t-4.5 -130t4.5 -129.5t20.5 -59.5q19 -23 51 -23
q31 0 50 23q16 20 21 60t5 129zM273 716l-74 -130h-49l65 130h58z" />
    <glyph glyph-name="ocircumflex" unicode="&#xf4;" horiz-adv-x="353" 
d="M309 254q0 -95 -8 -145t-30 -77q-33 -40 -94 -40t-94 40q-22 27 -30 77t-8 145t8 145t30 77q33 41 94 41t94 -41q22 -27 30 -77t8 -145zM253 254q0 89 -5 129.5t-21 60.5q-19 23 -50 23q-32 0 -51 -23q-16 -20 -20.5 -60t-4.5 -130t4.5 -129.5t20.5 -59.5q19 -23 51 -23
q31 0 50 23q16 20 21 60t5 129zM288 586h-51l-60 92l-60 -92h-52l87 130h50z" />
    <glyph glyph-name="otilde" unicode="&#xf5;" horiz-adv-x="353" 
d="M309 254q0 -95 -8 -145t-30 -77q-33 -40 -94 -40t-94 40q-22 27 -30 77t-8 145t8 145t30 77q33 41 94 41t94 -41q22 -27 30 -77t8 -145zM253 254q0 89 -5 129.5t-21 60.5q-19 23 -50 23q-32 0 -51 -23q-16 -20 -20.5 -60t-4.5 -130t4.5 -129.5t20.5 -59.5q19 -23 51 -23
q31 0 50 23q16 20 21 60t5 129zM297 635q-39 -38 -71 -38q-23 0 -54 17q-25 16 -42 16q-19 0 -43 -24l-28 29q38 38 70 38q26 0 54 -17q27 -16 42 -16q19 0 43 24z" />
    <glyph glyph-name="odieresis" unicode="&#xf6;" horiz-adv-x="353" 
d="M309 254q0 -95 -8 -145t-30 -77q-33 -40 -94 -40t-94 40q-22 27 -30 77t-8 145t8 145t30 77q33 41 94 41t94 -41q22 -27 30 -77t8 -145zM253 254q0 89 -5 129.5t-21 60.5q-19 23 -50 23q-32 0 -51 -23q-16 -20 -20.5 -60t-4.5 -130t4.5 -129.5t20.5 -59.5q19 -23 51 -23
q31 0 50 23q16 20 21 60t5 129zM277 606h-63v63h63v-63zM140 606h-64v63h64v-63z" />
    <glyph glyph-name="divide" unicode="&#xf7;" horiz-adv-x="431" 
d="M383 248h-334v53h334v-53zM254 89h-75v76h75v-76zM254 384h-75v75h75v-75z" />
    <glyph glyph-name="oslash" unicode="&#xf8;" horiz-adv-x="347" 
d="M311 553l-32 -87q30 -47 30 -212q0 -95 -8 -145t-30 -77q-33 -40 -94 -40q-42 0 -69 18l-20 -54h-46l33 87q-30 48 -30 211q0 95 8 145t30 77q33 41 94 41q40 0 68 -19l20 55h46zM226 447q-19 21 -49 21q-33 0 -51 -23q-16 -20 -20.5 -60t-4.5 -131q0 -104 8 -135z
M253 254q0 105 -8 136l-117 -329q18 -20 49 -20q32 0 50 23q16 20 21 60.5t5 129.5z" />
    <glyph glyph-name="ugrave" unicode="&#xf9;" horiz-adv-x="373" 
d="M311 0h-55v41q-10 -18 -29 -31q-26 -18 -58 -18q-48 0 -80 34q-31 33 -31 101v382h56v-383q0 -40 19.5 -61.5t50.5 -21.5t51 21.5t20 61.5v383h56v-509zM214 586h-49l-75 130h58z" />
    <glyph glyph-name="uacute" unicode="&#xfa;" horiz-adv-x="373" 
d="M311 0h-55v41q-10 -18 -29 -31q-26 -18 -58 -18q-48 0 -80 34q-31 33 -31 101v382h56v-383q0 -40 19.5 -61.5t50.5 -21.5t51 21.5t20 61.5v383h56v-509zM280 716l-74 -130h-49l65 130h58z" />
    <glyph glyph-name="ucircumflex" unicode="&#xfb;" horiz-adv-x="373" 
d="M311 0h-55v41q-10 -18 -29 -31q-26 -18 -58 -18q-48 0 -80 34q-31 33 -31 101v382h56v-383q0 -40 19.5 -61.5t50.5 -21.5t51 21.5t20 61.5v383h56v-509zM295 586h-51l-60 92l-60 -92h-52l87 130h50z" />
    <glyph glyph-name="udieresis" unicode="&#xfc;" horiz-adv-x="373" 
d="M311 0h-55v41q-10 -18 -29 -31q-26 -18 -58 -18q-48 0 -80 34q-31 33 -31 101v382h56v-383q0 -40 19.5 -61.5t50.5 -21.5t51 21.5t20 61.5v383h56v-509zM284 606h-63v63h63v-63zM147 606h-64v63h64v-63z" />
    <glyph glyph-name="yacute" unicode="&#xfd;" horiz-adv-x="308" 
d="M301 509l-144 -608q-14 -57 -50.5 -80.5t-97.5 -23.5v50q76 0 93 65l23 90l-121 507h62l87 -420l87 420h61zM254 716l-74 -130h-49l65 130h58z" />
    <glyph glyph-name="thorn" unicode="&#xfe;" horiz-adv-x="366" 
d="M321 254q0 -99 -8 -150t-30 -76q-31 -36 -79 -36q-33 0 -58 16q-16 9 -27 30v-241h-56v915h55v-244q8 18 28 31q26 18 58 18q48 0 79 -36q22 -26 30 -76.5t8 -150.5zM265 254q0 92 -5 131.5t-21 58.5q-19 23 -48 23q-28 0 -49 -19q-23 -23 -23 -70v-247q0 -47 23 -70
q21 -19 49 -19q29 0 48 22q16 19 21 58.5t5 131.5z" />
    <glyph glyph-name="ydieresis" unicode="&#xff;" horiz-adv-x="308" 
d="M301 509l-144 -608q-14 -57 -50.5 -80.5t-97.5 -23.5v50q76 0 93 65l23 90l-121 507h62l87 -420l87 420h61zM258 606h-63v63h63v-63zM121 606h-64v63h64v-63z" />
    <glyph glyph-name="dotlessi" unicode="&#x131;" horiz-adv-x="181" 
d="M119 0h-56v509h56v-509z" />
    <glyph glyph-name="IJ" unicode="&#x132;" horiz-adv-x="529" 
d="M128 0h-59v712h59v-712zM468 153q0 -78 -42 -120q-41 -41 -108 -41q-71 0 -113 50l43 39q26 -36 70 -36q40 0 65.5 28.5t25.5 79.5v559h59v-559z" />
    <glyph glyph-name="ij" unicode="&#x133;" horiz-adv-x="362" 
d="M118 0h-56v509h56v-509zM126 626h-72v72h72v-72zM299 -68q0 -68 -38 -103q-34 -32 -101 -32v50q83 0 83 86v576h56v-577zM307 626h-72v72h72v-72z" />
    <glyph glyph-name="Lslash" unicode="&#x141;" horiz-adv-x="341" 
d="M318 0h-248v294l-50 -47v64l50 48v353h59v-300l95 90v-64l-95 -91v-294h189v-53z" />
    <glyph glyph-name="lslash" unicode="&#x142;" horiz-adv-x="238" 
d="M218 0q-67 0 -101 32q-38 35 -38 104v184l-62 -64v63l62 64v329h56v-276l63 66v-63l-63 -66v-237q0 -86 83 -86v-50z" />
    <glyph glyph-name="OE" unicode="&#x152;" horiz-adv-x="602" 
d="M556 0h-246v40q-34 -48 -101 -48q-66 0 -105 42q-32 35 -41 95.5t-9 226.5t9 226.5t41 95.5q39 42 105 42q68 0 101 -48v40h246v-53h-190v-276h164v-53h-164v-277h190v-53zM308 356q0 157 -6 208t-28 77q-23 26 -64 26q-40 0 -63 -26q-22 -26 -28 -77t-6 -208t6 -208
t28 -77q23 -26 63 -26q41 0 64 26q22 26 28 77t6 208z" />
    <glyph glyph-name="oe" unicode="&#x153;" horiz-adv-x="559" 
d="M516 246h-207q0 -85 5 -124t21 -57q19 -23 51 -23q34 0 51 20q23 23 23 72h55q0 -68 -38 -107q-32 -35 -91 -35q-52 0 -86 34q-13 15 -19 29q-6 -14 -19 -29q-31 -34 -85 -34q-60 0 -94 40q-22 27 -30 77t-8 145t8 145.5t30 76.5q33 41 94 41q52 0 86 -34q11 -13 18 -29
q7 17 19 29q34 34 84 34q57 0 91 -37q24 -27 32.5 -79t8.5 -155zM253 254q0 89 -5 129.5t-21 60.5q-19 23 -50 23q-32 0 -51 -23q-16 -20 -20.5 -60t-4.5 -130q0 -91 4.5 -130.5t20.5 -58.5q18 -23 51 -23q32 0 50 23q16 19 21 59.5t5 129.5zM460 291q0 70 -5 103t-20 50
q-19 23 -51 23q-31 0 -50 -23q-15 -17 -20 -50t-5 -103h151z" />
    <glyph glyph-name="Scaron" unicode="&#x160;" horiz-adv-x="396" 
d="M350 186q0 -110 -44 -154q-38 -38 -111 -38q-74 0 -112 38q-24 25 -33 56t-9 90h59q0 -79 28 -107q24 -24 67 -24q46 0 68 24q28 30 28 113q0 68 -15 98t-60 48l-76 31q-55 22 -74.5 59.5t-19.5 118.5q0 95 49 141q40 38 104 38q68 0 107 -39q25 -25 34 -56.5t9 -81.5
h-59q0 67 -27 98q-23 26 -65 26q-39 0 -62 -23q-31 -31 -31 -102q0 -62 14.5 -87.5t62.5 -45.5l76 -31q55 -22 73.5 -64.5t18.5 -125.5zM317 887l-86 -129h-50l-87 129h52l60 -91l59 91h52z" />
    <glyph glyph-name="scaron" unicode="&#x161;" horiz-adv-x="336" 
d="M303 130q0 -59 -40 -99q-39 -39 -97 -39q-57 0 -93 36q-40 41 -40 110h56q0 -49 26 -75q21 -21 51 -21q35 0 58 23t23 63q0 33 -14 55q-16 25 -51 44l-64 35q-46 26 -66 60q-14 27 -14 64q0 56 40 96q35 35 91 35q57 0 91 -34q37 -37 37 -110h-56q0 51 -22 74
q-19 20 -50 20q-34 0 -53 -19q-22 -21 -22 -60q0 -27 10 -44q9 -16 47 -38l63 -36q49 -27 69 -60t20 -80zM284 709l-86 -129h-50l-87 129h52l60 -91l60 91h51z" />
    <glyph glyph-name="Ydieresis" unicode="&#x178;" horiz-adv-x="315" 
d="M312 712l-125 -414v-298h-59v298l-125 414h65l89 -326l90 326h65zM259 784h-63v63h63v-63zM121 784h-63v63h63v-63z" />
    <glyph glyph-name="Zcaron" unicode="&#x17d;" horiz-adv-x="324" 
d="M294 0h-264v46l203 613h-189v53h250v-46l-202 -613h202v-53zM279 887l-86 -129h-50l-87 129h52l60 -91l59 91h52z" />
    <glyph glyph-name="zcaron" unicode="&#x17e;" horiz-adv-x="276" 
d="M255 0h-233v44l172 415h-162v50h223v-44l-172 -415h172v-50zM255 709l-86 -129h-50l-87 129h52l60 -91l60 91h51z" />
    <glyph glyph-name="longs" unicode="&#x17f;" horiz-adv-x="181" 
d="M118 578v-578h-56v578q0 68 38 103q37 33 105 33v-51q-87 0 -87 -85z" />
    <glyph glyph-name="florin" unicode="&#x192;" horiz-adv-x="337" 
d="M316 664h-19q-36 0 -60.5 -21t-31.5 -60l-37 -201h83v-44h-91l-104 -542h-56l104 542h-57v44h65l37 202q12 63 51.5 96.5t100.5 33.5h15v-50z" />
    <glyph glyph-name="uni02BB" unicode="&#x2bb;" horiz-adv-x="184" 
d="M127 620h-69v92l69 51v-143z" />
    <glyph glyph-name="afii57929" unicode="&#x2bc;" horiz-adv-x="184" 
d="M127 620l-69 -50v142h69v-92z" />
    <glyph glyph-name="circumflex" unicode="&#x2c6;" horiz-adv-x="354" 
d="M288 586h-51l-60 92l-60 -92h-52l87 130h50z" />
    <glyph glyph-name="caron" unicode="&#x2c7;" horiz-adv-x="354" 
d="M288 709l-86 -129h-50l-87 129h52l60 -91l60 91h51z" />
    <glyph glyph-name="breve" unicode="&#x2d8;" horiz-adv-x="354" 
d="M287 684q-9 -104 -110 -104t-111 104h46q8 -60 65 -60q56 0 65 60h45z" />
    <glyph glyph-name="dotaccent" unicode="&#x2d9;" horiz-adv-x="354" 
d="M208 610h-63v63h63v-63z" />
    <glyph glyph-name="ring" unicode="&#x2da;" horiz-adv-x="354" 
d="M268 672q0 -38 -27 -64.5t-64 -26.5t-64 26.5t-27 64.5t27 64.5t64 26.5t64 -26.5t27 -64.5zM229 672q0 22 -15.5 37.5t-36.5 15.5q-22 0 -37.5 -15.5t-15.5 -37.5q0 -21 15.5 -36.5t37.5 -15.5q21 0 36.5 15.5t15.5 36.5z" />
    <glyph glyph-name="ogonek" unicode="&#x2db;" horiz-adv-x="354" 
d="M209 -37l-46 -134h-53l53 134h46z" />
    <glyph glyph-name="tilde" unicode="&#x2dc;" horiz-adv-x="354" 
d="M297 635q-39 -38 -71 -38q-23 0 -54 17q-25 16 -42 16q-19 0 -43 -24l-28 29q38 38 70 38q26 0 54 -17q27 -16 42 -16q19 0 43 24z" />
    <glyph glyph-name="hungarumlaut" unicode="&#x2dd;" horiz-adv-x="354" 
d="M205 716l-69 -130h-48l59 130h58zM331 716l-69 -130h-47l58 130h58z" />
    <glyph glyph-name="uni0394" unicode="&#x394;" horiz-adv-x="379" 
d="M375 0h-371l159 712h56zM301 53l-112 553l-110 -553h222z" />
    <glyph glyph-name="uni03A9" unicode="&#x3a9;" horiz-adv-x="429" 
d="M376 0h-138v44q47 23 61 65q13 38 13 247q0 158 -6.5 209t-28.5 76q-23 26 -63 26t-63 -26q-22 -25 -28.5 -76t-6.5 -209q0 -209 13 -247q15 -43 62 -65v-44h-139v49h73q-36 22 -51 56q-17 42 -17 251q0 169 9 228.5t42 93.5q39 42 106 42t106 -42q33 -34 42 -93.5
t9 -228.5q0 -209 -17 -251q-14 -35 -51 -56h73v-49z" />
    <glyph glyph-name="uni03BC" unicode="&#x3bc;" horiz-adv-x="378" 
d="M315 0h-55v41q-10 -18 -29 -31q-26 -18 -58 -18q-41 0 -56 21v-217h-55v713h56v-384q0 -40 19.5 -61.5t50.5 -21.5t51 21.5t20 61.5v384h56v-509z" />
    <glyph glyph-name="pi" unicode="&#x3c0;" horiz-adv-x="391" 
d="M322 509v-509h-56v461h-141v-461h-56v509h253z" />
    <glyph glyph-name="uni2007" unicode="&#x2007;" horiz-adv-x="361" 
 />
    <glyph glyph-name="uni2008" unicode="&#x2008;" horiz-adv-x="199" 
 />
    <glyph glyph-name="uni200B" unicode="&#x200b;" horiz-adv-x="0" 
 />
    <glyph glyph-name="endash" unicode="&#x2013;" horiz-adv-x="432" 
d="M383 250h-335v54h335v-54z" />
    <glyph glyph-name="emdash" unicode="&#x2014;" horiz-adv-x="671" 
d="M616 250h-561v54h561v-54z" />
    <glyph glyph-name="quoteleft" unicode="&#x2018;" horiz-adv-x="184" 
d="M127 620h-69v92l69 51v-143z" />
    <glyph glyph-name="quoteright" unicode="&#x2019;" horiz-adv-x="184" 
d="M127 620l-69 -50v142h69v-92z" />
    <glyph glyph-name="quotesinglbase" unicode="&#x201a;" horiz-adv-x="184" 
d="M127 0l-69 -51v143h69v-92z" />
    <glyph glyph-name="quotedblleft" unicode="&#x201c;" horiz-adv-x="329" 
d="M271 620h-69v92l69 51v-143zM127 620h-69v92l69 51v-143z" />
    <glyph glyph-name="quotedblright" unicode="&#x201d;" horiz-adv-x="329" 
d="M271 620l-69 -50v142h69v-92zM127 620l-69 -50v142h69v-92z" />
    <glyph glyph-name="quotedblbase" unicode="&#x201e;" horiz-adv-x="329" 
d="M271 -16l-69 -51v143h69v-92zM127 -16l-69 -51v143h69v-92z" />
    <glyph glyph-name="dagger" unicode="&#x2020;" horiz-adv-x="437" 
d="M388 460h-143v-460h-54v460h-143v49h143v203h54v-203h143v-49z" />
    <glyph glyph-name="daggerdbl" unicode="&#x2021;" horiz-adv-x="437" 
d="M388 0h-143v-203h-54v203h-143v49h143v411h-143v49h143v203h54v-203h143v-49h-143v-411h143v-49z" />
    <glyph glyph-name="bullet" unicode="&#x2022;" horiz-adv-x="464" 
d="M395 334q0 -68 -47.5 -115.5t-115.5 -47.5t-115.5 47.5t-47.5 115.5t47.5 115.5t115.5 47.5t115.5 -47.5t47.5 -115.5z" />
    <glyph glyph-name="ellipsis" unicode="&#x2026;" horiz-adv-x="549" 
d="M487 0h-75v75h75v-75zM137 0h-75v75h75v-75zM312 0h-75v75h75v-75z" />
    <glyph glyph-name="perthousand" unicode="&#x2030;" horiz-adv-x="890" 
d="M252 446q0 -45 -28 -72.5t-71 -27.5t-70.5 27.5t-27.5 72.5v175q0 45 27.5 72t70.5 27t71 -27t28 -72v-175zM835 92q0 -45 -28 -72.5t-71 -27.5t-70.5 27.5t-27.5 72.5v174q0 45 27.5 72.5t70.5 27.5t71 -27.5t28 -72.5v-174zM562 92q0 -45 -27.5 -72.5t-70.5 -27.5
t-70.5 27.5t-27.5 72.5v174q0 45 27.5 72.5t70.5 27.5t70.5 -27.5t27.5 -72.5v-174zM456 712l-248 -712h-47l248 712h47zM514 92v174q0 27 -13 42t-37 15t-37 -15t-13 -42v-174q0 -27 13 -42t37 -15t37 15t13 42zM786 92v174q0 27 -13 42t-37 15q-49 0 -49 -57v-174
q0 -57 49 -57q24 0 37 15t13 42zM203 446v174q0 27 -13 42t-37 15q-49 0 -49 -57v-174q0 -57 49 -57q24 0 37 15t13 42z" />
    <glyph glyph-name="guilsinglleft" unicode="&#x2039;" horiz-adv-x="219" 
d="M164 58l-136 210l136 210v-96l-75 -114l75 -115v-95z" />
    <glyph glyph-name="guilsinglright" unicode="&#x203a;" horiz-adv-x="219" 
d="M191 268l-136 -210v95l75 115l-75 114v96z" />
    <glyph glyph-name="fraction" unicode="&#x2044;" horiz-adv-x="154" 
d="M224 712l-247 -712h-47l247 712h47z" />
    <glyph glyph-name="uni2070" unicode="&#x2070;" horiz-adv-x="278" 
d="M237 369q0 -42 -26 -66q-26 -23 -72 -23t-71 23q-27 24 -27 66v259q0 44 27 66q25 23 71 23q44 0 72 -23q26 -23 26 -66v-259zM194 367v263q0 24 -15 36.5t-40 12.5q-54 0 -54 -49v-263q0 -49 54 -49q25 0 40 12.5t15 36.5z" />
    <glyph glyph-name="uni2074" unicode="&#x2074;" 
d="M251 349h-32v-64h-43v64h-148v38l125 325h43l-124 -325h104v103h43v-103h32v-38z" />
    <glyph glyph-name="uni2075" unicode="&#x2075;" 
d="M235 422q0 -50 -6 -75t-23 -42q-25 -25 -67 -25q-40 0 -65 22t-25 66v25h44v-25q0 -24 13.5 -37t32.5 -13q25 0 38 15q15 18 15 89q0 70 -15 88q-12 14 -37 14q-19 0 -32 -12.5t-13 -32.5v-16h-44v249h178v-38h-135v-138q11 13 23 19q17 9 36 9q35 0 59 -24
q23 -24 23 -118z" />
    <glyph glyph-name="uni2076" unicode="&#x2076;" 
d="M232 412q0 -75 -24 -103q-23 -29 -71 -29q-47 0 -70 29q-14 17 -19 38.5t-5 64.5q0 64 18 109l77 191h46l-74 -180q16 11 38 11q39 0 59 -23q14 -15 19.5 -36.5t5.5 -71.5zM189 413q0 70 -18 85q-14 10 -33 10q-20 0 -34 -10q-18 -15 -18 -85t18 -85q14 -10 34 -10
q19 0 33 10q18 15 18 85z" />
    <glyph glyph-name="uni2077" unicode="&#x2077;" 
d="M236 674l-101 -389h-46l101 389h-109v-71h-43v109h198v-38z" />
    <glyph glyph-name="uni2078" unicode="&#x2078;" 
d="M233 404q0 -74 -29 -100q-26 -24 -66 -24q-43 0 -67 24q-17 15 -22.5 36.5t-5.5 63.5q0 61 15 83q8 11 28 24q-19 10 -27 24q-12 20 -12 70q0 66 27 90q23 22 64 22t64 -22q28 -24 28 -90q0 -46 -14 -70q-8 -14 -25 -24q22 -14 29 -24q13 -19 13 -83zM190 404
q0 58 -16 74q-13 13 -36 13q-24 0 -37 -13q-15 -15 -15 -74q0 -58 15 -73q13 -13 37 -13q23 0 36 13q16 16 16 73zM187 605q0 47 -16 63q-9 11 -33 11q-22 0 -33 -11q-15 -15 -15 -63q0 -49 15 -64q11 -11 33 -11q24 0 33 11q16 16 16 64z" />
    <glyph glyph-name="uni2079" unicode="&#x2079;" 
d="M232 585q0 -64 -18 -109l-77 -191h-47l75 180q-16 -11 -38 -11q-39 0 -59 23q-14 15 -19.5 36.5t-5.5 71.5q0 75 23 103q24 29 71 29q48 0 71 -29q14 -17 19 -38.5t5 -64.5zM189 584q0 70 -19 85q-12 10 -33 10t-33 -10q-18 -15 -18 -85t18 -85q12 -10 33 -10t33 10
q19 15 19 85z" />
    <glyph glyph-name="uni2080" unicode="&#x2080;" horiz-adv-x="278" 
d="M237 -66q0 -42 -26 -66q-26 -23 -72 -23t-71 23q-27 24 -27 66v259q0 44 27 66q25 23 71 23q44 0 72 -23q26 -23 26 -66v-259zM194 -68v263q0 24 -15 36.5t-40 12.5q-54 0 -54 -49v-263q0 -49 54 -49q25 0 40 12.5t15 36.5z" />
    <glyph glyph-name="uni2081" unicode="&#x2081;" 
d="M174 -150h-43v379l-69 -47v47l69 48h43v-427z" />
    <glyph glyph-name="uni2082" unicode="&#x2082;" 
d="M242 -150h-204v37l137 218q24 39 24 79q0 27 -16.5 43.5t-43.5 16.5q-59 0 -59 -69v-18h-43v17q0 55 27 81q29 27 75 27q43 0 73 -24t30 -74q0 -49 -30 -98l-124 -198h154v-38z" />
    <glyph glyph-name="uni2083" unicode="&#x2083;" 
d="M245 -36q0 -37 -6.5 -57t-23.5 -36q-26 -26 -75 -26q-48 0 -77 27q-25 27 -25 85v13h43v-13q0 -44 18 -59q15 -15 41 -15q27 0 42 15q20 20 20 67q0 48 -17 68q-16 19 -45 19h-29v38h29q23 0 40 14q19 18 19 68q0 42 -19 58q-13 14 -40 14t-42 -15q-16 -16 -16 -54v-13
h-43v12q0 57 25 81q30 27 76 27t74 -26q28 -27 28 -84q0 -48 -18 -72q-16 -20 -39 -29q27 -8 42 -31q18 -26 18 -76z" />
    <glyph glyph-name="uni2084" unicode="&#x2084;" 
d="M251 -86h-32v-64h-43v64h-148v38l125 325h43l-124 -325h104v103h43v-103h32v-38z" />
    <glyph glyph-name="uni2085" unicode="&#x2085;" 
d="M235 -13q0 -50 -6 -75t-23 -42q-25 -25 -67 -25q-40 0 -65 22t-25 66v25h44v-25q0 -24 13.5 -37t32.5 -13q25 0 38 15q15 18 15 89q0 70 -15 88q-12 14 -37 14q-19 0 -32 -12.5t-13 -32.5v-16h-44v249h178v-38h-135v-138q11 13 23 19q17 9 36 9q35 0 59 -24
q23 -24 23 -118z" />
    <glyph glyph-name="uni2086" unicode="&#x2086;" 
d="M232 -23q0 -75 -24 -103q-23 -29 -71 -29q-47 0 -70 29q-14 17 -19 38.5t-5 64.5q0 64 18 109l77 191h46l-74 -180q16 11 38 11q39 0 59 -23q14 -15 19.5 -36.5t5.5 -71.5zM189 -22q0 70 -18 85q-14 10 -33 10q-20 0 -34 -10q-18 -15 -18 -85t18 -85q14 -10 34 -10
q19 0 33 10q18 15 18 85z" />
    <glyph glyph-name="uni2087" unicode="&#x2087;" 
d="M236 239l-101 -389h-46l101 389h-109v-71h-43v109h198v-38z" />
    <glyph glyph-name="uni2088" unicode="&#x2088;" 
d="M233 -31q0 -74 -29 -100q-26 -24 -66 -24q-43 0 -67 24q-17 15 -22.5 36.5t-5.5 63.5q0 61 15 83q8 11 28 24q-19 10 -27 24q-12 20 -12 70q0 66 27 90q23 22 64 22t64 -22q28 -24 28 -90q0 -46 -14 -70q-8 -14 -25 -24q22 -14 29 -24q13 -19 13 -83zM190 -31
q0 58 -16 74q-13 13 -36 13q-24 0 -37 -13q-15 -15 -15 -74q0 -58 15 -73q13 -13 37 -13q23 0 36 13q16 16 16 73zM187 170q0 47 -16 63q-9 11 -33 11q-22 0 -33 -11q-15 -15 -15 -63q0 -49 15 -64q11 -11 33 -11q24 0 33 11q16 16 16 64z" />
    <glyph glyph-name="uni2089" unicode="&#x2089;" 
d="M232 150q0 -64 -18 -109l-77 -191h-47l75 180q-16 -11 -38 -11q-39 0 -59 23q-14 15 -19.5 36.5t-5.5 71.5q0 75 23 103q24 29 71 29q48 0 71 -29q14 -17 19 -38.5t5 -64.5zM189 149q0 70 -19 85q-12 10 -33 10t-33 -10q-18 -15 -18 -85t18 -85q12 -10 33 -10t33 10
q19 15 19 85z" />
    <glyph glyph-name="Euro" unicode="&#x20ac;" horiz-adv-x="448" 
d="M402 163q-2 -93 -50 -137q-39 -34 -98 -34q-67 0 -106 42q-28 29 -38.5 74t-11.5 154h-63v44h63v100h-63v44h63q1 109 11.5 154t38.5 74q39 42 106 42q64 0 102 -38q43 -43 45 -133h-59q0 118 -88 118q-41 0 -64 -26q-18 -21 -24.5 -56t-7.5 -135h133v-44h-134v-100h134
v-44h-133q1 -99 7.5 -134t25.5 -57q23 -26 63 -26q89 0 89 118h59z" />
    <glyph glyph-name="uni20B4" unicode="&#x20b4;" horiz-adv-x="396" 
d="M45 262h-28v44h40q19 47 76 70l73 30h-189v44h253q16 27 16 90q0 71 -31 102q-23 23 -62 23q-42 0 -65 -26q-27 -31 -27 -98h-59q0 50 9 81.5t34 56.5q39 39 107 39q64 0 104 -38q49 -46 49 -141q0 -55 -9 -89h33v-44h-54q-20 -27 -64 -45l-76 -31q-25 -10 -41 -24h235
v-44h-262q-7 -28 -7 -78q0 -83 28 -113q22 -24 68 -24q43 0 67 24q28 28 28 107h59q0 -59 -9 -90t-33 -56q-38 -38 -112 -38q-73 0 -111 38q-44 44 -44 154q0 47 4 76z" />
    <glyph glyph-name="afii61352" unicode="&#x2116;" horiz-adv-x="656" 
d="M600 541q0 -64 -4.5 -94.5t-20.5 -50.5q-23 -29 -66 -29q-44 0 -67 29q-15 20 -19.5 50t-4.5 95q0 64 4.5 94t19.5 51q22 30 67 30q44 0 66 -30q16 -19 20.5 -49.5t4.5 -95.5zM555 541q0 99 -16 121q-9 15 -30 15q-19 0 -31 -15q-15 -21 -15 -121q0 -99 16 -121
q9 -14 30 -14t30 14q16 22 16 121zM597 288h-175v41h175v-41zM361 0h-54l-182 555v-555h-56v712h55l181 -555v555h56v-712z" />
    <glyph glyph-name="trademark" unicode="&#x2122;" horiz-adv-x="602" 
d="M544 282h-43v323l-73 -206h-31l-74 199v-316h-43v430h42l90 -241l91 241h41v-430zM223 673h-74v-391h-42v391h-74v39h190v-39z" />
    <glyph glyph-name="Omega" unicode="&#x2126;" horiz-adv-x="429" 
d="M376 0h-138v44q47 23 61 65q13 38 13 247q0 158 -6.5 209t-28.5 76q-23 26 -63 26t-63 -26q-22 -25 -28.5 -76t-6.5 -209q0 -209 13 -247q15 -43 62 -65v-44h-139v49h73q-36 22 -51 56q-17 42 -17 251q0 169 9 228.5t42 93.5q39 42 106 42t106 -42q33 -34 42 -93.5
t9 -228.5q0 -209 -17 -251q-14 -35 -51 -56h73v-49z" />
    <glyph glyph-name="onethird" unicode="&#x2153;" horiz-adv-x="708" 
d="M174 285h-43v379l-69 -47v47l69 48h43v-427zM501 712l-247 -712h-47l247 712h47zM676 114q0 -37 -6.5 -57t-23.5 -36q-26 -26 -75 -26t-77 27q-25 27 -25 85v13h43v-13q0 -44 18 -59q15 -15 41 -15q27 0 42 15q20 20 20 67q0 48 -17 68q-16 19 -45 19h-29v38h29
q23 0 40 14q19 18 19 68q0 42 -19 58q-13 14 -40 14t-42 -15q-16 -16 -16 -54v-13h-43v12q0 57 25 81q30 27 76 27t74 -26q28 -27 28 -84q0 -48 -18 -72q-16 -20 -39 -29q27 -8 42 -31q18 -25 18 -76z" />
    <glyph glyph-name="twothirds" unicode="&#x2154;" horiz-adv-x="708" 
d="M242 285h-204v37l137 218q24 39 24 79q0 27 -16.5 43.5t-43.5 16.5q-59 0 -59 -69v-18h-43v17q0 55 27 81q29 27 75 27q43 0 73 -24t30 -74q0 -49 -30 -98l-124 -198h154v-38zM501 712l-247 -712h-47l247 712h47zM676 114q0 -37 -6.5 -57t-23.5 -36q-26 -26 -75 -26
t-77 27q-25 27 -25 85v13h43v-13q0 -44 18 -59q15 -15 41 -15q27 0 42 15q20 20 20 67q0 48 -17 68q-16 19 -45 19h-29v38h29q23 0 40 14q19 18 19 68q0 42 -19 58q-13 14 -40 14t-42 -15q-16 -16 -16 -54v-13h-43v12q0 57 25 81q30 27 76 27t74 -26q28 -27 28 -84
q0 -48 -18 -72q-16 -20 -39 -29q27 -8 42 -31q18 -25 18 -76z" />
    <glyph glyph-name="uni2155" unicode="&#x2155;" horiz-adv-x="708" 
d="M174 285h-43v379l-69 -47v47l69 48h43v-427zM501 712l-247 -712h-47l247 712h47zM666 137q0 -50 -6 -75t-23 -42q-25 -25 -67 -25q-40 0 -65 22t-25 66v25h44v-25q0 -24 13.5 -37t32.5 -13q25 0 38 15q15 18 15 89q0 70 -15 88q-12 14 -37 14q-19 0 -32 -12.5t-13 -32.5
v-16h-44v249h178v-38h-135v-138q11 13 23 19q16 9 36 9q35 0 59 -24q23 -24 23 -118z" />
    <glyph glyph-name="uni2156" unicode="&#x2156;" horiz-adv-x="708" 
d="M242 285h-204v37l137 218q24 39 24 79q0 27 -16.5 43.5t-43.5 16.5q-59 0 -59 -69v-18h-43v17q0 55 27 81q29 27 75 27q43 0 73 -24t30 -74q0 -49 -30 -98l-124 -198h154v-38zM501 712l-247 -712h-47l247 712h47zM666 137q0 -50 -6 -75t-23 -42q-25 -25 -67 -25
q-40 0 -65 22t-25 66v25h44v-25q0 -24 13.5 -37t32.5 -13q25 0 38 15q15 18 15 89q0 70 -15 88q-12 14 -37 14q-19 0 -32 -12.5t-13 -32.5v-16h-44v249h178v-38h-135v-138q11 13 23 19q16 9 36 9q35 0 59 -24q23 -24 23 -118z" />
    <glyph glyph-name="uni2157" unicode="&#x2157;" horiz-adv-x="708" 
d="M245 399q0 -37 -6.5 -57t-23.5 -36q-26 -26 -75 -26q-48 0 -77 27q-25 27 -25 85v13h43v-13q0 -44 18 -59q15 -15 41 -15q27 0 42 15q20 20 20 67q0 48 -17 68q-16 19 -45 19h-29v38h29q23 0 40 14q19 18 19 68q0 42 -19 58q-13 14 -40 14t-42 -15q-16 -16 -16 -54v-13
h-43v12q0 57 25 81q30 27 76 27t74 -26q28 -27 28 -84q0 -48 -18 -72q-16 -20 -39 -29q27 -8 42 -31q18 -25 18 -76zM501 712l-247 -712h-47l247 712h47zM666 137q0 -50 -6 -75t-23 -42q-25 -25 -67 -25q-40 0 -65 22t-25 66v25h44v-25q0 -24 13.5 -37t32.5 -13q25 0 38 15
q15 18 15 89q0 70 -15 88q-12 14 -37 14q-19 0 -32 -12.5t-13 -32.5v-16h-44v249h178v-38h-135v-138q11 13 23 19q16 9 36 9q35 0 59 -24q23 -24 23 -118z" />
    <glyph glyph-name="uni2158" unicode="&#x2158;" horiz-adv-x="708" 
d="M251 349h-32v-64h-43v64h-148v38l125 325h43l-124 -325h104v103h43v-103h32v-38zM501 712l-247 -712h-47l247 712h47zM666 137q0 -50 -6 -75t-23 -42q-25 -25 -67 -25q-40 0 -65 22t-25 66v25h44v-25q0 -24 13.5 -37t32.5 -13q25 0 38 15q15 18 15 89q0 70 -15 88
q-12 14 -37 14q-19 0 -32 -12.5t-13 -32.5v-16h-44v249h178v-38h-135v-138q11 13 23 19q16 9 36 9q35 0 59 -24q23 -24 23 -118z" />
    <glyph glyph-name="uni2159" unicode="&#x2159;" horiz-adv-x="708" 
d="M174 285h-43v379l-69 -47v47l69 48h43v-427zM501 712l-247 -712h-47l247 712h47zM663 127q0 -75 -24 -103q-23 -29 -71 -29q-47 0 -70 29q-14 17 -19 38.5t-5 64.5q0 64 18 109l77 191h46l-74 -180q16 11 38 11q39 0 59 -23q14 -15 19.5 -36.5t5.5 -71.5zM620 128
q0 70 -18 85q-14 10 -33 10q-20 0 -34 -10q-18 -15 -18 -85t18 -85q14 -10 34 -10q19 0 33 10q18 15 18 85z" />
    <glyph glyph-name="uni215A" unicode="&#x215a;" horiz-adv-x="708" 
d="M235 422q0 -50 -6 -75t-23 -42q-25 -25 -67 -25q-40 0 -65 22t-25 66v25h44v-25q0 -24 13.5 -37t32.5 -13q25 0 38 15q15 18 15 89q0 70 -15 88q-12 14 -37 14q-19 0 -32 -12.5t-13 -32.5v-16h-44v249h178v-38h-135v-138q11 13 23 19q17 9 36 9q35 0 59 -24
q23 -24 23 -118zM501 712l-247 -712h-47l247 712h47zM663 127q0 -75 -24 -103q-23 -29 -71 -29q-47 0 -70 29q-14 17 -19 38.5t-5 64.5q0 64 18 109l77 191h46l-74 -180q16 11 38 11q39 0 59 -23q14 -15 19.5 -36.5t5.5 -71.5zM620 128q0 70 -18 85q-14 10 -33 10
q-20 0 -34 -10q-18 -15 -18 -85t18 -85q14 -10 34 -10q19 0 33 10q18 15 18 85z" />
    <glyph glyph-name="oneeighth" unicode="&#x215b;" horiz-adv-x="708" 
d="M174 285h-43v379l-69 -47v47l69 48h43v-427zM501 712l-247 -712h-47l247 712h47zM664 119q0 -74 -29 -100q-26 -24 -66 -24q-43 0 -67 24q-17 15 -22.5 36.5t-5.5 63.5q0 61 15 83q8 11 28 24q-19 10 -27 24q-12 20 -12 70q0 66 27 90q23 22 64 22t64 -22q28 -24 28 -90
q0 -46 -14 -70q-8 -14 -25 -24q22 -14 29 -24q13 -19 13 -83zM621 119q0 58 -16 74q-13 13 -36 13q-24 0 -37 -13q-15 -15 -15 -74q0 -58 15 -73q13 -13 37 -13q23 0 36 13q16 16 16 73zM618 320q0 47 -16 63q-9 11 -33 11q-22 0 -33 -11q-15 -15 -15 -63q0 -49 15 -64
q11 -11 33 -11q24 0 33 11q16 16 16 64z" />
    <glyph glyph-name="threeeighths" unicode="&#x215c;" horiz-adv-x="708" 
d="M245 399q0 -37 -6.5 -57t-23.5 -36q-26 -26 -75 -26q-48 0 -77 27q-25 27 -25 85v13h43v-13q0 -44 18 -59q15 -15 41 -15q27 0 42 15q20 20 20 67q0 48 -17 68q-16 19 -45 19h-29v38h29q23 0 40 14q19 18 19 68q0 42 -19 58q-13 14 -40 14t-42 -15q-16 -16 -16 -54v-13
h-43v12q0 57 25 81q30 27 76 27t74 -26q28 -27 28 -84q0 -48 -18 -72q-16 -20 -39 -29q27 -8 42 -31q18 -25 18 -76zM501 712l-247 -712h-47l247 712h47zM664 119q0 -74 -29 -100q-26 -24 -66 -24q-43 0 -67 24q-17 15 -22.5 36.5t-5.5 63.5q0 61 15 83q8 11 28 24
q-19 10 -27 24q-12 20 -12 70q0 66 27 90q23 22 64 22t64 -22q28 -24 28 -90q0 -46 -14 -70q-8 -14 -25 -24q22 -14 29 -24q13 -19 13 -83zM621 119q0 58 -16 74q-13 13 -36 13q-24 0 -37 -13q-15 -15 -15 -74q0 -58 15 -73q13 -13 37 -13q23 0 36 13q16 16 16 73zM618 320
q0 47 -16 63q-9 11 -33 11q-22 0 -33 -11q-15 -15 -15 -63q0 -49 15 -64q11 -11 33 -11q24 0 33 11q16 16 16 64z" />
    <glyph glyph-name="fiveeighths" unicode="&#x215d;" horiz-adv-x="708" 
d="M235 422q0 -50 -6 -75t-23 -42q-25 -25 -67 -25q-40 0 -65 22t-25 66v25h44v-25q0 -24 13.5 -37t32.5 -13q25 0 38 15q15 18 15 89q0 70 -15 88q-12 14 -37 14q-19 0 -32 -12.5t-13 -32.5v-16h-44v249h178v-38h-135v-138q11 13 23 19q17 9 36 9q35 0 59 -24
q23 -24 23 -118zM501 712l-247 -712h-47l247 712h47zM664 119q0 -74 -29 -100q-26 -24 -66 -24q-43 0 -67 24q-17 15 -22.5 36.5t-5.5 63.5q0 61 15 83q8 11 28 24q-19 10 -27 24q-12 20 -12 70q0 66 27 90q23 22 64 22t64 -22q28 -24 28 -90q0 -46 -14 -70q-8 -14 -25 -24
q22 -14 29 -24q13 -19 13 -83zM621 119q0 58 -16 74q-13 13 -36 13q-24 0 -37 -13q-15 -15 -15 -74q0 -58 15 -73q13 -13 37 -13q23 0 36 13q16 16 16 73zM618 320q0 47 -16 63q-9 11 -33 11q-22 0 -33 -11q-15 -15 -15 -63q0 -49 15 -64q11 -11 33 -11q24 0 33 11
q16 16 16 64z" />
    <glyph glyph-name="seveneighths" unicode="&#x215e;" horiz-adv-x="708" 
d="M236 674l-101 -389h-46l101 389h-109v-71h-43v109h198v-38zM501 712l-247 -712h-47l247 712h47zM664 119q0 -74 -29 -100q-26 -24 -66 -24q-43 0 -67 24q-17 15 -22.5 36.5t-5.5 63.5q0 61 15 83q8 11 28 24q-19 10 -27 24q-12 20 -12 70q0 66 27 90q23 22 64 22t64 -22
q28 -24 28 -90q0 -46 -14 -70q-8 -14 -25 -24q22 -14 29 -24q13 -19 13 -83zM621 119q0 58 -16 74q-13 13 -36 13q-24 0 -37 -13q-15 -15 -15 -74q0 -58 15 -73q13 -13 37 -13q23 0 36 13q16 16 16 73zM618 320q0 47 -16 63q-9 11 -33 11q-22 0 -33 -11q-15 -15 -15 -63
q0 -49 15 -64q11 -11 33 -11q24 0 33 11q16 16 16 64z" />
    <glyph glyph-name="uni215F" unicode="&#x215f;" horiz-adv-x="431" 
d="M174 285h-43v379l-69 -47v47l69 48h43v-427zM501 712l-247 -712h-47l247 712h47z" />
    <glyph glyph-name="arrowleft" unicode="&#x2190;" horiz-adv-x="632" 
d="M576 241h-445l214 -214h-75l-242 241l242 240h75l-214 -212h445v-55z" />
    <glyph glyph-name="arrowup" unicode="&#x2191;" horiz-adv-x="632" 
d="M556 235l-212 214v-445h-56v445l-212 -214v75l240 242l240 -242v-75z" />
    <glyph glyph-name="arrowright" unicode="&#x2192;" horiz-adv-x="632" 
d="M603 268l-241 -241h-75l214 214h-445v55h445l-214 212h75z" />
    <glyph glyph-name="arrowdown" unicode="&#x2193;" horiz-adv-x="632" 
d="M556 225l-240 -241l-240 241v76l212 -215v446h56v-446l212 215v-76z" />
    <glyph glyph-name="uni2196" unicode="&#x2196;" horiz-adv-x="632" 
d="M516 418l-302 1l315 -316l-39 -39l-316 316l2 -302l-54 52v341h341z" />
    <glyph glyph-name="uni2197" unicode="&#x2197;" horiz-adv-x="632" 
d="M456 78l1 302l-315 -316l-39 39l315 316l-302 -1l53 53h340v-341z" />
    <glyph glyph-name="uni2198" unicode="&#x2198;" horiz-adv-x="632" 
d="M509 404v-340h-340l-54 54l303 -1l-315 315l38 38l316 -314l-2 302z" />
    <glyph glyph-name="uni2199" unicode="&#x2199;" horiz-adv-x="632" 
d="M463 64h-340v340l53 54l-1 -302l316 314l38 -38l-315 -315l303 1z" />
    <glyph glyph-name="partialdiff" unicode="&#x2202;" horiz-adv-x="363" 
d="M304 254q0 -96 -8 -146t-31 -76q-34 -40 -90 -40q-54 0 -90 39q-23 25 -31.5 75t-8.5 144q0 98 8 147.5t30 74.5q32 35 81 35q33 0 56 -16q21 -12 28 -29v112q0 48 -19 72q-18 22 -53 22q-43 0 -70 -33l-40 35q43 48 111 48q60 0 91 -31q19 -19 27.5 -44t8.5 -73v-316z
M248 250q0 89 -4.5 127.5t-20.5 57.5q-19 22 -48 22t-48 -22q-16 -19 -21 -58.5t-5 -126.5q0 -88 5 -127.5t21 -58.5q19 -22 48 -22t48 22q16 19 20.5 58t4.5 128z" />
    <glyph glyph-name="Delta" unicode="&#x2206;" horiz-adv-x="379" 
d="M375 0h-371l159 712h56zM301 53l-112 553l-110 -553h222z" />
    <glyph glyph-name="product" unicode="&#x220f;" horiz-adv-x="433" 
d="M364 -219h-60v926h-176v-926h-59v979h295v-979z" />
    <glyph glyph-name="summation" unicode="&#x2211;" horiz-adv-x="353" 
d="M301 -220h-271v46l142 458l-129 430v46h258v-53h-193l113 -396v-57l-125 -420h205v-54z" />
    <glyph glyph-name="minus" unicode="&#x2212;" horiz-adv-x="431" 
d="M383 250h-335v54h335v-54z" />
    <glyph glyph-name="uni2219" unicode="&#x2219;" horiz-adv-x="431" 
d="M378 277q0 -67 -48 -115t-115 -48t-115 48t-48 115t48 115t115 48t115 -48t48 -115z" />
    <glyph glyph-name="radical" unicode="&#x221a;" horiz-adv-x="441" 
d="M413 659h-78l-153 -659h-61l-117 493h64l83 -405l133 624h129v-53z" />
    <glyph glyph-name="infinity" unicode="&#x221e;" horiz-adv-x="615" 
d="M564 275q0 -52 -33.5 -86.5t-87.5 -34.5q-39 0 -70.5 18.5t-65.5 60.5q-64 -80 -135 -80q-54 0 -87.5 34.5t-33.5 87.5t33.5 87.5t87.5 34.5q71 0 135 -80q35 42 66 61t70 19q54 0 87.5 -34.5t33.5 -87.5zM511 274q0 31 -20 50.5t-51 19.5q-25 0 -45.5 -16.5t-51.5 -53.5
q31 -37 51.5 -53t45.5 -16q31 0 51 19t20 50zM272 274q-22 27 -33.5 39t-28.5 22.5t-35 10.5q-31 0 -51 -20.5t-20 -51.5t20 -50t51 -19q25 0 45.5 16t51.5 53z" />
    <glyph glyph-name="integral" unicode="&#x222b;" horiz-adv-x="282" 
d="M252 664h-15q-30 0 -49 -20.5t-19 -58.5v-657q0 -62 -34 -97q-34 -34 -85 -34h-20v51h16q30 0 48.5 20.5t18.5 58.5v656q0 62 34 98q33 33 86 33h19v-50z" />
    <glyph glyph-name="approxequal" unicode="&#x2248;" horiz-adv-x="431" 
d="M385 347q-32 -32 -52.5 -43t-46.5 -11q-27 0 -81 25q-42 18 -60 18q-17 0 -30 -6.5t-34 -27.5l-35 34q32 31 53 42t46 11q29 0 81 -24q40 -18 60 -18q18 0 31 6.5t34 27.5zM385 202q-32 -31 -52.5 -42t-46.5 -11q-29 0 -81 24q-38 18 -60 18q-17 0 -30 -6.5t-34 -27.5
l-35 34q32 32 53 43t46 11q27 0 81 -25q44 -18 60 -18q18 0 31 6.5t34 27.5z" />
    <glyph glyph-name="notequal" unicode="&#x2260;" horiz-adv-x="431" 
d="M386 179h-215l-75 -94l-40 30l52 64h-62v53h102l74 91h-176v53h215l74 94l40 -30l-51 -64h62v-53h-101l-74 -91h175v-53z" />
    <glyph glyph-name="lessequal" unicode="&#x2264;" horiz-adv-x="361" 
d="M327 158l-293 170v49l293 170v-63l-229 -132l229 -131v-63zM327 -3l-293 170v62l293 -170v-62z" />
    <glyph glyph-name="greaterequal" unicode="&#x2265;" horiz-adv-x="361" 
d="M327 328l-293 -170v63l229 131l-229 132v63l293 -170v-49zM327 167l-293 -170v62l293 170v-62z" />
    <glyph glyph-name="dotmath" unicode="&#x22c5;" horiz-adv-x="431" 
d="M277 216h-123v123h123v-123z" />
    <glyph glyph-name="lozenge" unicode="&#x25ca;" horiz-adv-x="500" 
d="M447 334l-197 -279l-197 279l197 279zM385 334l-135 193l-135 -193l135 -195z" />
    <glyph glyph-name="fi" unicode="&#xfb01;" horiz-adv-x="400" 
d="M221 465h-87v-465h-56v465h-62v44h62v69q0 68 38 103q37 33 105 33v-51q-87 0 -87 -85v-69h87v-44zM337 0h-56v509h56v-509zM345 626h-72v72h72v-72z" />
    <glyph glyph-name="fl" unicode="&#xfb02;" horiz-adv-x="436" 
d="M221 465h-87v-465h-56v465h-62v44h62v69q0 68 38 103q37 33 105 33v-51q-87 0 -87 -85v-69h87v-44zM420 0q-67 0 -101 32q-38 35 -38 104v576h56v-576q0 -86 83 -86v-50z" />
    <glyph glyph-name="zero.numr" horiz-adv-x="278" 
d="M237 369q0 -42 -26 -66q-26 -23 -72 -23t-71 23q-27 24 -27 66v259q0 44 27 66q25 23 71 23q44 0 72 -23q26 -23 26 -66v-259zM194 367v263q0 24 -15 36.5t-40 12.5q-54 0 -54 -49v-263q0 -49 54 -49q25 0 40 12.5t15 36.5z" />
    <glyph glyph-name="one.numr" 
d="M174 285h-43v379l-69 -47v47l69 48h43v-427z" />
    <glyph glyph-name="two.numr" 
d="M242 285h-204v37l137 218q24 39 24 79q0 27 -16.5 43.5t-43.5 16.5q-59 0 -59 -69v-18h-43v17q0 55 27 81q29 27 75 27q43 0 73 -24t30 -74q0 -49 -30 -98l-124 -198h154v-38z" />
    <glyph glyph-name="three.numr" 
d="M245 399q0 -37 -6.5 -57t-23.5 -36q-26 -26 -75 -26q-48 0 -77 27q-25 27 -25 85v13h43v-13q0 -44 18 -59q15 -15 41 -15q27 0 42 15q20 20 20 67q0 48 -17 68q-16 19 -45 19h-29v38h29q23 0 40 14q19 18 19 68q0 42 -19 58q-13 14 -40 14t-42 -15q-16 -16 -16 -54v-13
h-43v12q0 57 25 81q30 27 76 27t74 -26q28 -27 28 -84q0 -48 -18 -72q-16 -20 -39 -29q27 -8 42 -31q18 -25 18 -76z" />
    <glyph glyph-name="four.numr" 
d="M251 349h-32v-64h-43v64h-148v38l125 325h43l-124 -325h104v103h43v-103h32v-38z" />
    <glyph glyph-name="five.numr" 
d="M235 422q0 -50 -6 -75t-23 -42q-25 -25 -67 -25q-40 0 -65 22t-25 66v25h44v-25q0 -24 13.5 -37t32.5 -13q25 0 38 15q15 18 15 89q0 70 -15 88q-12 14 -37 14q-19 0 -32 -12.5t-13 -32.5v-16h-44v249h178v-38h-135v-138q11 13 23 19q17 9 36 9q35 0 59 -24
q23 -24 23 -118z" />
    <glyph glyph-name="six.numr" 
d="M232 412q0 -75 -24 -103q-23 -29 -71 -29q-47 0 -70 29q-14 17 -19 38.5t-5 64.5q0 64 18 109l77 191h46l-74 -180q16 11 38 11q39 0 59 -23q14 -15 19.5 -36.5t5.5 -71.5zM189 413q0 70 -18 85q-14 10 -33 10q-20 0 -34 -10q-18 -15 -18 -85t18 -85q14 -10 34 -10
q19 0 33 10q18 15 18 85z" />
    <glyph glyph-name="seven.numr" 
d="M236 674l-101 -389h-46l101 389h-109v-71h-43v109h198v-38z" />
    <glyph glyph-name="eight.numr" 
d="M233 404q0 -74 -29 -100q-26 -24 -66 -24q-43 0 -67 24q-17 15 -22.5 36.5t-5.5 63.5q0 61 15 83q8 11 28 24q-19 10 -27 24q-12 20 -12 70q0 66 27 90q23 22 64 22t64 -22q28 -24 28 -90q0 -46 -14 -70q-8 -14 -25 -24q22 -14 29 -24q13 -19 13 -83zM190 404
q0 58 -16 74q-13 13 -36 13q-24 0 -37 -13q-15 -15 -15 -74q0 -58 15 -73q13 -13 37 -13q23 0 36 13q16 16 16 73zM187 605q0 47 -16 63q-9 11 -33 11q-22 0 -33 -11q-15 -15 -15 -63q0 -49 15 -64q11 -11 33 -11q24 0 33 11q16 16 16 64z" />
    <glyph glyph-name="nine.numr" 
d="M232 585q0 -64 -18 -109l-77 -191h-47l75 180q-16 -11 -38 -11q-39 0 -59 23q-14 15 -19.5 36.5t-5.5 71.5q0 75 23 103q24 29 71 29q48 0 71 -29q14 -17 19 -38.5t5 -64.5zM189 584q0 70 -19 85q-12 10 -33 10t-33 -10q-18 -15 -18 -85t18 -85q12 -10 33 -10t33 10
q19 15 19 85z" />
    <glyph glyph-name="zero.dnom" horiz-adv-x="278" 
d="M237 84q0 -42 -26 -66q-26 -23 -72 -23t-71 23q-27 24 -27 66v259q0 44 27 66q25 23 71 23q44 0 72 -23q26 -23 26 -66v-259zM194 82v263q0 24 -15 36.5t-40 12.5q-54 0 -54 -49v-263q0 -49 54 -49q25 0 40 12.5t15 36.5z" />
    <glyph glyph-name="one.dnom" 
d="M174 0h-43v379l-69 -47v47l69 48h43v-427z" />
    <glyph glyph-name="two.dnom" 
d="M242 0h-204v37l137 218q24 39 24 79q0 27 -16.5 43.5t-43.5 16.5q-59 0 -59 -69v-18h-43v17q0 55 27 81q29 27 75 27q43 0 73 -24t30 -74q0 -49 -30 -98l-124 -198h154v-38z" />
    <glyph glyph-name="three.dnom" 
d="M245 114q0 -37 -6.5 -57t-23.5 -36q-26 -26 -75 -26q-48 0 -77 27q-25 27 -25 85v13h43v-13q0 -44 18 -59q15 -15 41 -15q27 0 42 15q20 20 20 67q0 48 -17 68q-16 19 -45 19h-29v38h29q23 0 40 14q19 18 19 68q0 42 -19 58q-13 14 -40 14t-42 -15q-16 -16 -16 -54v-13
h-43v12q0 57 25 81q30 27 76 27t74 -26q28 -27 28 -84q0 -48 -18 -72q-16 -20 -39 -29q27 -8 42 -31q18 -26 18 -76z" />
    <glyph glyph-name="four.dnom" 
d="M251 64h-32v-64h-43v64h-148v38l125 325h43l-124 -325h104v103h43v-103h32v-38z" />
    <glyph glyph-name="five.dnom" 
d="M235 137q0 -50 -6 -75t-23 -42q-25 -25 -67 -25q-40 0 -65 22t-25 66v25h44v-25q0 -24 13.5 -37t32.5 -13q25 0 38 15q15 18 15 89q0 70 -15 88q-12 14 -37 14q-19 0 -32 -12.5t-13 -32.5v-16h-44v249h178v-38h-135v-138q11 13 23 19q17 9 36 9q35 0 59 -24
q23 -24 23 -118z" />
    <glyph glyph-name="six.dnom" 
d="M232 127q0 -75 -24 -103q-23 -29 -71 -29q-47 0 -70 29q-14 17 -19 38.5t-5 64.5q0 64 18 109l77 191h46l-74 -180q16 11 38 11q39 0 59 -23q14 -15 19.5 -36.5t5.5 -71.5zM189 128q0 70 -18 85q-14 10 -33 10q-20 0 -34 -10q-18 -15 -18 -85t18 -85q14 -10 34 -10
q19 0 33 10q18 15 18 85z" />
    <glyph glyph-name="seven.dnom" 
d="M236 389l-101 -389h-46l101 389h-109v-71h-43v109h198v-38z" />
    <glyph glyph-name="eight.dnom" 
d="M233 119q0 -74 -29 -100q-26 -24 -66 -24q-43 0 -67 24q-17 15 -22.5 36.5t-5.5 63.5q0 61 15 83q8 11 28 24q-19 10 -27 24q-12 20 -12 70q0 66 27 90q23 22 64 22t64 -22q28 -24 28 -90q0 -46 -14 -70q-8 -14 -25 -24q22 -14 29 -24q13 -19 13 -83zM190 119
q0 58 -16 74q-13 13 -36 13q-24 0 -37 -13q-15 -15 -15 -74q0 -58 15 -73q13 -13 37 -13q23 0 36 13q16 16 16 73zM187 320q0 47 -16 63q-9 11 -33 11q-22 0 -33 -11q-15 -15 -15 -63q0 -49 15 -64q11 -11 33 -11q24 0 33 11q16 16 16 64z" />
    <glyph glyph-name="nine.dnom" 
d="M232 300q0 -64 -18 -109l-77 -191h-47l75 180q-16 -11 -38 -11q-39 0 -59 23q-14 15 -19.5 36.5t-5.5 71.5q0 75 23 103q24 29 71 29q48 0 71 -29q14 -17 19 -38.5t5 -64.5zM189 299q0 70 -19 85q-12 10 -33 10t-33 -10q-18 -15 -18 -85t18 -85q12 -10 33 -10t33 10
q19 15 19 85z" />
    <glyph glyph-name="space.frac" horiz-adv-x="38" 
 />
    <glyph glyph-name="zero.osf" horiz-adv-x="344" 
d="M172 -8q-55 0 -90 35q-36 36 -36 101v338q0 65 36 101q35 35 90 35q56 0 91 -35q36 -36 36 -101v-338q0 -65 -36 -101q-35 -35 -91 -35zM242 125v344q0 40 -19.5 61.5t-50.5 21.5t-50.5 -21.5t-19.5 -61.5v-344q0 -40 19.5 -61.5t50.5 -21.5t50.5 21.5t19.5 61.5z" />
    <glyph glyph-name="one.osf" horiz-adv-x="291" 
d="M202 0h-56v529l-102 -89v67l102 87h56v-594z" />
    <glyph glyph-name="two.osf" horiz-adv-x="344" 
d="M301 0h-262v47l166 281q22 37 28.5 65t6.5 75q0 40 -19.5 62t-50.5 22t-51 -21.5t-20 -61.5v-46h-56v45q0 63 36 99q35 35 91 35t89 -33q37 -35 37 -102q0 -52 -9.5 -87t-35.5 -74l-150 -256h200v-50z" />
    <glyph glyph-name="three.osf" horiz-adv-x="342" 
d="M295 78q0 -75 -7.5 -109.5t-32.5 -59.5q-33 -35 -90 -35q-55 0 -91 34q-37 37 -37 101v49h57v-50q0 -40 20 -62t51 -22q30 0 49 21q25 29 25 135q0 68 -5 94.5t-20 43.5q-21 21 -49 21h-41v49h41q28 0 45 17q23 26 23 115q0 88 -22 113q-18 19 -46 19q-30 0 -48 -21.5
t-18 -61.5v-51h-57v49q0 64 36 101q32 34 87 34q54 0 87 -33q21 -20 29 -52t8 -95q0 -87 -19 -121q-13 -23 -40 -38q24 -14 40 -34q15 -23 20 -51t5 -100z" />
    <glyph glyph-name="four.osf" horiz-adv-x="365" 
d="M334 30h-58v-153h-56v153h-189v50l181 549h55l-179 -549h132v200h56v-200h58v-50z" />
    <glyph glyph-name="five.osf" horiz-adv-x="351" 
d="M307 108q0 -88 -7.5 -127t-32.5 -67q-35 -40 -90 -40q-129 0 -129 156v25h57v-47q0 -41 21 -63.5t51 -22.5q25 0 39 9.5t24.5 51.5t10.5 123q0 79 -10.5 121t-24.5 52t-39 10q-31 0 -51.5 -22.5t-20.5 -59.5v-34h-53v421h245v-51h-193v-252q25 47 86 47q52 0 82 -38
q21 -26 28 -66t7 -126z" />
    <glyph glyph-name="six.osf" horiz-adv-x="349" 
d="M305 210q0 -81 -7.5 -117t-29.5 -62q-32 -39 -94 -39t-93 39q-22 27 -29.5 63t-7.5 116q0 113 29 191l115 311h57l-115 -306q26 21 58 21q50 0 81 -36q21 -23 28.5 -58t7.5 -123zM248 210q0 69 -4.5 100.5t-19.5 47.5q-20 21 -50 21q-31 0 -49 -21q-16 -17 -20.5 -49
t-4.5 -99q0 -66 4.5 -98t20.5 -49q18 -21 49 -21q32 0 50 21q15 17 19.5 48t4.5 99z" />
    <glyph glyph-name="seven.osf" horiz-adv-x="333" 
d="M302 548l-192 -666h-56l190 662h-153v-116h-56v166h267v-46z" />
    <glyph glyph-name="eight.osf" horiz-adv-x="351" 
d="M306 196q0 -75 -8 -109.5t-32 -59.5q-35 -35 -90 -35q-56 0 -91 35q-24 25 -32 60t-8 109q0 70 5.5 98.5t20.5 50.5q13 21 40 35q-25 13 -40 38q-21 38 -21 121q0 62 8.5 94.5t29.5 53.5q35 33 87 33q53 0 88 -33q21 -21 29.5 -53.5t8.5 -94.5q0 -86 -21 -121
q-15 -24 -39 -38q26 -15 39 -35q16 -22 21 -50t5 -99zM250 197q0 68 -5 94.5t-20 43.5q-21 21 -49 21q-30 0 -49 -21q-16 -16 -20.5 -42.5t-4.5 -95.5q0 -105 25 -134q17 -21 49 -21q31 0 49 21q25 31 25 134zM245 537q0 89 -24 114q-16 19 -45 19q-28 0 -46 -19
q-23 -24 -23 -114q0 -91 24 -115q16 -17 45 -17q28 0 44 17q25 25 25 115z" />
    <glyph glyph-name="nine.osf" horiz-adv-x="349" 
d="M305 384q0 -113 -29 -191l-115 -311h-57l115 306q-26 -21 -58 -21q-50 0 -81 36q-21 23 -28.5 58t-7.5 123q0 81 7.5 117t29.5 62q31 39 94 39q60 0 93 -39q22 -27 29.5 -63t7.5 -116zM248 384q0 68 -4.5 99t-19.5 48q-18 21 -50 21q-31 0 -49 -21q-16 -17 -20.5 -49
t-4.5 -98q0 -67 4.5 -99.5t20.5 -48.5q18 -21 49 -21q32 0 50 21q15 17 19.5 48.5t4.5 99.5z" />
    <glyph glyph-name="zero.lf" horiz-adv-x="361" 
d="M307 128q0 -65 -36 -101q-35 -35 -91 -35q-57 0 -90 35q-36 36 -36 101v456q0 65 36 101q33 35 90 35q56 0 91 -35q36 -36 36 -101v-456zM251 125v462q0 40 -20 61.5t-51 21.5t-50.5 -21.5t-19.5 -61.5v-462q0 -40 19.5 -61.5t50.5 -21.5t51 21.5t20 61.5z" />
    <glyph glyph-name="one.lf" horiz-adv-x="257" 
d="M176 0h-56v646l-102 -88v67l102 87h56v-712z" />
    <glyph glyph-name="two.lf" horiz-adv-x="323" 
d="M292 0h-260v47l169 390q35 80 35 149q0 40 -20 62t-51 22t-50.5 -21.5t-19.5 -61.5v-51h-56v50q0 62 36 99q33 35 90 35q54 0 90 -34q37 -35 37 -102q0 -73 -41 -166l-159 -368h200v-50z" />
    <glyph glyph-name="three.lf" horiz-adv-x="326" 
d="M289 196q0 -75 -7.5 -109.5t-32.5 -59.5q-33 -35 -90 -35q-55 0 -91 34q-37 37 -37 101v49h57v-50q0 -40 20 -62t51 -22q30 0 49 21q25 29 25 135q0 68 -5 94.5t-20 43.5q-21 21 -49 21h-41v49h41q28 0 45 17q23 26 23 115q0 88 -22 113q-18 19 -46 19q-30 0 -48 -21.5
t-18 -61.5v-51h-57v49q0 64 36 101q32 34 87 34q54 0 87 -33q21 -20 29 -52t8 -95q0 -87 -19 -121q-13 -23 -40 -38q24 -14 40 -34q15 -23 20 -51t5 -100z" />
    <glyph glyph-name="four.lf" horiz-adv-x="346" 
d="M316 123h-50v-123h-56v123h-189v51l181 538h55l-179 -538h132v199h56v-199h50v-51z" />
    <glyph glyph-name="five.lf" horiz-adv-x="341" 
d="M305 224q0 -85 -8 -125t-32 -67q-34 -40 -91 -40t-90 33q-38 38 -38 102v47h56v-45q0 -43 20 -65t53 -22q31 0 49 25q14 19 19.5 50.5t5.5 106.5q0 73 -5.5 105.5t-19.5 52.5q-17 26 -50 26q-31 0 -51.5 -23t-20.5 -60v-33h-52v420h245v-50h-194v-252q11 19 33 33
q24 14 54 14q50 0 81 -39q21 -25 28.5 -64.5t7.5 -129.5z" />
    <glyph glyph-name="six.lf" horiz-adv-x="342" 
d="M301 210q0 -81 -7 -117.5t-29 -61.5q-31 -39 -94 -39q-62 0 -93 39q-22 27 -29.5 63t-7.5 116q0 113 29 191l115 311h56l-114 -306q26 21 58 21q50 0 81 -36q20 -23 27.5 -57.5t7.5 -123.5zM245 210q0 67 -4.5 99.5t-19.5 48.5q-20 21 -50 21q-31 0 -50 -21
q-15 -17 -19.5 -49t-4.5 -99q0 -66 4.5 -98t19.5 -49q19 -21 50 -21t50 21q15 17 19.5 49t4.5 98z" />
    <glyph glyph-name="seven.lf" horiz-adv-x="324" 
d="M301 666l-173 -666h-59l175 662h-154v-116h-56v166h267v-46z" />
    <glyph glyph-name="eight.lf" horiz-adv-x="341" 
d="M301 196q0 -75 -8 -109.5t-32 -59.5q-33 -35 -90 -35q-56 0 -91 35q-24 25 -32 60t-8 109q0 70 5.5 98.5t20.5 50.5q13 21 40 35q-26 15 -40 38q-21 38 -21 121q0 63 8.5 95t30.5 53q33 33 87 33t87 -33q21 -21 29.5 -53.5t8.5 -94.5q0 -86 -21 -121q-15 -24 -39 -38
q26 -15 39 -35q16 -22 21 -50t5 -99zM245 197q0 68 -5 94.5t-20 43.5q-20 21 -49 21q-31 0 -49 -21q-16 -16 -20.5 -42.5t-4.5 -95.5q0 -105 25 -134q18 -21 49 -21t49 21q25 29 25 134zM240 537q0 88 -23 114q-19 19 -46 19t-46 -19q-23 -24 -23 -114q0 -91 24 -115
q16 -17 45 -17q28 0 44 17q25 25 25 115z" />
    <glyph glyph-name="nine.lf" horiz-adv-x="342" 
d="M301 502q0 -113 -29 -191l-114 -311h-57l115 306q-27 -21 -59 -21q-50 0 -81 36q-20 23 -27.5 57.5t-7.5 123.5q0 81 7 117.5t29 61.5q33 39 94 39t94 -39q22 -27 29 -62.5t7 -116.5zM245 502q0 66 -4.5 98t-19.5 49q-20 21 -50 21q-31 0 -50 -21q-15 -17 -19.5 -49
t-4.5 -98q0 -67 4.5 -99.5t19.5 -48.5q19 -21 50 -21t50 21q15 17 19.5 49t4.5 99z" />
    <glyph glyph-name="zero.tosf" horiz-adv-x="361" 
d="M307 128q0 -65 -36 -101q-35 -35 -91 -35q-57 0 -90 35q-36 36 -36 101v338q0 65 36 101q33 35 90 35q56 0 91 -35q36 -36 36 -101v-338zM251 125v344q0 40 -20 61.5t-51 21.5t-50.5 -21.5t-19.5 -61.5v-344q0 -40 19.5 -61.5t50.5 -21.5t51 21.5t20 61.5z" />
    <glyph glyph-name="one.tosf" horiz-adv-x="361" 
d="M227 0h-56v529l-102 -89v67l102 87h56v-594z" />
    <glyph glyph-name="two.tosf" horiz-adv-x="361" 
d="M308 0h-262v47l166 281q22 37 28.5 65t6.5 75q0 40 -19.5 62t-50.5 22t-51 -21.5t-20 -61.5v-46h-56v45q0 63 36 99q35 35 91 35t89 -33q37 -35 37 -102q0 -52 -9.5 -87t-35.5 -74l-150 -256h200v-50z" />
    <glyph glyph-name="three.tosf" horiz-adv-x="361" 
d="M301 78q0 -75 -7.5 -109.5t-32.5 -59.5q-33 -35 -90 -35q-55 0 -91 34q-37 37 -37 101v49h57v-50q0 -40 20 -62t51 -22q30 0 49 21q25 29 25 135q0 68 -5 94.5t-20 43.5q-21 21 -49 21h-41v49h41q28 0 45 17q23 26 23 115q0 88 -22 113q-18 19 -46 19q-30 0 -48 -21.5
t-18 -61.5v-51h-57v49q0 64 36 101q32 34 87 34q54 0 87 -33q21 -20 29 -52t8 -95q0 -87 -19 -121q-13 -23 -40 -38q24 -14 40 -34q15 -23 20 -51t5 -100z" />
    <glyph glyph-name="four.tosf" horiz-adv-x="361" 
d="M331 30h-57v-153h-57v153h-188v50l181 549h55l-179 -549h131v200h57v-200h57v-50z" />
    <glyph glyph-name="five.tosf" horiz-adv-x="361" 
d="M312 108q0 -88 -7.5 -127t-32.5 -67q-35 -40 -90 -40q-129 0 -129 156v25h57v-47q0 -41 21 -63.5t51 -22.5q25 0 39 9.5t24.5 51.5t10.5 123q0 79 -10.5 121t-24.5 52t-39 10q-31 0 -51.5 -22.5t-20.5 -59.5v-34h-53v421h245v-51h-193v-252q25 47 86 47q52 0 82 -38
q21 -26 28 -66t7 -126z" />
    <glyph glyph-name="six.tosf" horiz-adv-x="361" 
d="M311 210q0 -81 -7.5 -117t-29.5 -62q-32 -39 -94 -39t-93 39q-22 27 -29.5 63t-7.5 116q0 113 29 191l115 311h57l-115 -306q26 21 58 21q50 0 81 -36q21 -23 28.5 -58t7.5 -123zM254 210q0 69 -4.5 100.5t-19.5 47.5q-20 21 -50 21q-31 0 -49 -21q-16 -17 -20.5 -49
t-4.5 -99q0 -66 4.5 -98t20.5 -49q18 -21 49 -21q32 0 50 21q15 17 19.5 48t4.5 99z" />
    <glyph glyph-name="seven.tosf" horiz-adv-x="361" 
d="M321 548l-193 -666h-55l190 662h-162v-116h-55v166h275v-46z" />
    <glyph glyph-name="eight.tosf" horiz-adv-x="361" 
d="M311 196q0 -74 -8 -109t-32 -60q-35 -35 -91 -35q-55 0 -90 35q-24 25 -32 59.5t-8 109.5q0 71 5 99t21 50q13 20 39 35q-24 14 -39 38q-21 35 -21 121q0 62 8.5 94.5t29.5 53.5q35 33 87 33q53 0 88 -33q21 -21 29.5 -53.5t8.5 -94.5q0 -83 -21 -121q-15 -25 -40 -38
q27 -14 40 -35q15 -22 20.5 -50.5t5.5 -98.5zM254 197q0 69 -4.5 95.5t-20.5 42.5q-19 21 -49 21q-28 0 -49 -21q-15 -17 -20 -43.5t-5 -94.5q0 -103 25 -134q18 -21 49 -21q32 0 49 21q25 29 25 134zM249 537q0 90 -23 114q-18 19 -46 19q-29 0 -45 -19q-24 -25 -24 -114
q0 -90 25 -115q16 -17 44 -17q29 0 45 17q24 24 24 115z" />
    <glyph glyph-name="nine.tosf" horiz-adv-x="361" 
d="M311 384q0 -113 -29 -191l-115 -311h-57l115 306q-26 -21 -58 -21q-50 0 -81 36q-21 23 -28.5 58t-7.5 123q0 81 7.5 117t29.5 62q31 39 94 39q60 0 93 -39q22 -27 29.5 -63t7.5 -116zM254 384q0 68 -4.5 99t-19.5 48q-18 21 -50 21q-31 0 -49 -21q-16 -17 -20.5 -49
t-4.5 -98q0 -67 4.5 -99.5t20.5 -48.5q18 -21 49 -21q32 0 50 21q15 17 19.5 48.5t4.5 99.5z" />
    <glyph glyph-name="uni2007.tosf" horiz-adv-x="361" 
 />
    <glyph glyph-name="hyphen.case" horiz-adv-x="301" 
d="M246 329h-191v53h191v-53z" />
    <glyph glyph-name="exclamdown.case" horiz-adv-x="227" 
d="M127 0h-56v525h56v-525zM137 637h-75v75h75v-75z" />
    <glyph glyph-name="guillemotleft.case" horiz-adv-x="371" 
d="M316 146l-136 210l136 210v-96l-76 -114l76 -115v-95zM164 146l-135 210l135 210v-96l-75 -114l75 -115v-95z" />
    <glyph glyph-name="uni00AD.case" horiz-adv-x="301" 
d="M246 329h-191v53h191v-53z" />
    <glyph glyph-name="guillemotright.case" horiz-adv-x="371" 
d="M342 356l-136 -210v95l76 115l-76 114v96zM191 356l-136 -210v95l76 115l-76 114v96z" />
    <glyph glyph-name="questiondown.case" horiz-adv-x="375" 
d="M317 150q0 -81 -39 -119q-37 -37 -96 -37q-63 0 -99 37q-40 41 -40 134q0 69 29 115l58 93q21 32 21 74v78h56v-85q0 -45 -24 -83l-58 -92q-26 -41 -26 -101q0 -68 28 -98q20 -22 55 -22q32 0 53 21q26 26 26 85h56zM217 637h-75v75h75v-75z" />
    <glyph glyph-name="endash.case" horiz-adv-x="431" 
d="M383 328h-335v54h335v-54z" />
    <glyph glyph-name="emdash.case" horiz-adv-x="671" 
d="M616 328h-561v54h561v-54z" />
    <glyph glyph-name="guilsinglleft.case" horiz-adv-x="219" 
d="M164 146l-136 210l136 210v-96l-75 -114l75 -115v-95z" />
    <glyph glyph-name="guilsinglright.case" horiz-adv-x="219" 
d="M191 356l-136 -210v95l75 115l-75 114v96z" />
    <glyph glyph-name="caroncomma.ss01" horiz-adv-x="500" 
d="M416 610l-52 -40v152h52v-112z" />
    <glyph glyph-name="commaaccent.ss01" horiz-adv-x="354" 
d="M220 -118q0 -38 -25.5 -62.5t-66.5 -24.5v38q21 0 35.5 14t14.5 35q0 20 -14.5 34t-35.5 14v39q41 0 66.5 -25t25.5 -62z" />
    <glyph glyph-name="commaturn.ss01" horiz-adv-x="354" 
d="M222 565q-41 0 -66.5 24.5t-25.5 62.5t25.5 62.5t66.5 24.5v-38q-20 0 -34.5 -14.5t-14.5 -34.5q0 -21 14.5 -35t34.5 -14v-38z" />
    <glyph glyph-name="exclam.ss01" horiz-adv-x="227" 
d="M156 187h-57v525h57v-525zM172 41q0 -19 -13 -32t-31 -13q-19 0 -32 13t-13 32q0 18 13 31t32 13q18 0 31 -13t13 -31z" />
    <glyph glyph-name="period.ss01" horiz-adv-x="199" 
d="M144 41q0 -18 -13 -31t-32 -13q-18 0 -31 13t-13 31q0 19 13 32t31 13q19 0 32 -13t13 -32z" />
    <glyph glyph-name="colon.ss01" horiz-adv-x="227" 
d="M172 357q0 -19 -13 -32t-31 -13q-19 0 -32 13t-13 32q0 18 13 31t32 13q18 0 31 -13t13 -31zM172 41q0 -19 -13 -32t-31 -13q-19 0 -32 13t-13 32q0 18 13 31t32 13q18 0 31 -13t13 -31z" />
    <glyph glyph-name="semicolon.ss01" horiz-adv-x="227" 
d="M162 -48l-69 -51v176h69v-125zM172 357q0 -19 -13 -32t-31 -13q-19 0 -32 13t-13 32q0 18 13 31t32 13q18 0 31 -13t13 -31z" />
    <glyph glyph-name="question.ss01" horiz-adv-x="375" 
d="M332 547q0 -69 -29 -115l-58 -93q-22 -34 -22 -74v-78h-56v85q0 42 25 82l58 93q26 41 26 101q0 68 -28 98q-20 22 -55 22q-33 0 -54 -21q-26 -26 -26 -86h-56q0 82 39 120q37 37 97 37q62 0 98 -37q22 -22 31.5 -51.5t9.5 -82.5zM240 40q0 -19 -13 -31.5t-32 -12.5
t-31.5 12.5t-12.5 31.5t12.5 32t31.5 13t32 -13t13 -32z" />
    <glyph glyph-name="at.ss01" horiz-adv-x="712" 
d="M427 333q1 9 1 21q0 38 -13 56.5t-32 18.5q-31 0 -53 -34q-26 -39 -47 -140q-13 -69 -13 -100q0 -75 45 -75q28 0 53 36q29 44 47 139q10 55 12 78zM653 367q0 -132 -64.5 -231.5t-172.5 -99.5h-40l10 50q-39 -56 -84 -56q-88 0 -88 121q0 46 12 104q26 131 67 180
q37 44 84 44q28 0 47.5 -16.5t25.5 -40.5l11 52h54l-79 -394q70 1 119.5 85.5t49.5 200.5q0 125 -54 200.5t-143 75.5q-81 0 -148.5 -65t-104.5 -167t-37 -213q0 -152 65.5 -246t175.5 -94h37l-8 -41h-36q-128 0 -205.5 106.5t-77.5 277.5q0 126 44.5 237.5t123 180
t172.5 68.5q111 0 177.5 -87.5t66.5 -231.5z" />
    <glyph glyph-name="i.ss01" horiz-adv-x="181" 
d="M118 0h-56v509h56v-509zM131 663q0 -17 -12 -29t-29 -12q-16 0 -28 12t-12 29t12 29t28 12q17 0 29 -12t12 -29z" />
    <glyph glyph-name="j.ss01" horiz-adv-x="181" 
d="M118 -67q0 -69 -38 -104q-34 -32 -101 -32v50q41 0 62 20t21 66v576h56v-576zM131 663q0 -17 -12 -29t-29 -12q-16 0 -28 12t-12 29t12 29t28 12q17 0 29 -12t12 -29z" />
    <glyph glyph-name="exclamdown.ss01" horiz-adv-x="227" 
d="M128 -203h-57v525h57v-525zM144 468q0 -18 -13 -31t-32 -13q-18 0 -31 13t-13 31q0 19 13 32t31 13q19 0 32 -13t13 -32z" />
    <glyph glyph-name="dieresis.ss01" horiz-adv-x="354" 
d="M284 637q0 -15 -11 -26t-27 -11t-26.5 11t-10.5 26q0 16 10.5 27t26.5 11t27 -11t11 -27zM146 637q0 -15 -11 -26t-27 -11q-15 0 -26 11t-11 26q0 16 11 27t26 11q16 0 27 -11t11 -27z" />
    <glyph glyph-name="periodcentered.ss01" horiz-adv-x="236" 
d="M175 306q0 -23 -17 -40t-40 -17t-40 17t-17 40t17 40t40 17t40 -17t17 -40z" />
    <glyph glyph-name="cedilla.ss01" horiz-adv-x="354" 
d="M220 -118q0 -38 -25.5 -62.5t-66.5 -24.5v38q21 0 35.5 14t14.5 35q0 20 -14.5 34t-35.5 14v39q41 0 66.5 -25t25.5 -62z" />
    <glyph glyph-name="questiondown.ss01" horiz-adv-x="375" 
d="M317 -53q0 -81 -39 -119q-37 -37 -96 -37q-63 0 -99 37q-40 41 -40 134q0 69 29 115l58 93q21 32 21 74v78h56v-85q0 -45 -24 -83l-58 -92q-26 -41 -26 -101q0 -68 28 -98q20 -22 55 -22q32 0 53 21q26 26 26 85h56zM224 468q0 -19 -13 -31.5t-32 -12.5t-31.5 12.5
t-12.5 31.5t12.5 32t31.5 13t32 -13t13 -32z" />
    <glyph glyph-name="Adieresis.ss01" horiz-adv-x="379" 
d="M374 0h-63l-39 195h-166l-38 -195h-64l159 712h55zM261 248l-72 358l-71 -358h143zM160 815q0 -15 -11 -26t-26 -11q-16 0 -27 11t-11 26q0 16 11 27t27 11q15 0 26 -11t11 -27zM298 815q0 -15 -11 -26t-27 -11q-15 0 -26 11t-11 26q0 16 11 27t26 11q16 0 27 -11t11 -27
z" />
    <glyph glyph-name="Ccedilla.ss01" horiz-adv-x="399" 
d="M358 163q-2 -93 -50 -137q-37 -34 -98 -34q-67 0 -106 42q-32 34 -41 92.5t-9 229.5t9 229.5t41 92.5q39 42 106 42q64 0 102 -38q44 -44 46 -133h-59q0 65 -28 94q-22 24 -61 24q-40 0 -63 -26q-22 -25 -28 -76.5t-6 -208.5t6 -208.5t28 -76.5q23 -26 63 -26q39 0 61 24
q28 29 28 94h59zM256 -118q0 -38 -25.5 -62.5t-66.5 -24.5v38q21 0 35.5 14t14.5 35q0 20 -14.5 34t-35.5 14v39q41 0 66.5 -25t25.5 -62z" />
    <glyph glyph-name="Edieresis.ss01" horiz-adv-x="364" 
d="M317 0h-248v712h248v-53h-189v-276h163v-53h-163v-277h189v-53zM166 815q0 -15 -11 -26t-26 -11q-16 0 -27 11t-11 26q0 16 11 27t27 11q15 0 26 -11t11 -27zM304 815q0 -15 -11 -26t-27 -11q-15 0 -26 11t-11 26q0 16 11 27t26 11q16 0 27 -11t11 -27z" />
    <glyph glyph-name="Idieresis.ss01" horiz-adv-x="197" 
d="M128 0h-59v712h59v-712zM67 815q0 -15 -11 -26t-26 -11q-16 0 -27 11t-11 26q0 16 11 27t27 11q15 0 26 -11t11 -27zM205 815q0 -15 -11 -26t-27 -11q-15 0 -26 11t-11 26q0 16 11 27t26 11q16 0 27 -11t11 -27z" />
    <glyph glyph-name="Odieresis.ss01" horiz-adv-x="421" 
d="M367 356q0 -171 -9 -229.5t-41 -92.5q-39 -42 -107 -42q-67 0 -106 42q-32 34 -41 92.5t-9 229.5t9 229.5t41 92.5q39 42 106 42q68 0 107 -42q32 -34 41 -92.5t9 -229.5zM308 356q0 157 -6 208.5t-28 76.5q-23 26 -64 26q-40 0 -63 -26q-22 -25 -28 -76.5t-6 -208.5
t6 -208.5t28 -76.5q23 -26 63 -26q41 0 64 26q22 25 28 76.5t6 208.5zM179 815q0 -15 -11 -26t-26 -11q-16 0 -27 11t-11 26q0 16 11 27t27 11q15 0 26 -11t11 -27zM317 815q0 -15 -11 -26t-27 -11q-15 0 -26 11t-11 26q0 16 11 27t26 11q16 0 27 -11t11 -27z" />
    <glyph glyph-name="Udieresis.ss01" horiz-adv-x="417" 
d="M356 148q0 -73 -42 -115q-43 -41 -105 -41t-105 41q-43 43 -43 115v564h59v-569q0 -45 25.5 -71.5t63.5 -26.5t63 26.5t25 71.5v569h59v-564zM178 815q0 -15 -11 -26t-26 -11q-16 0 -27 11t-11 26q0 16 11 27t27 11q15 0 26 -11t11 -27zM316 815q0 -15 -11 -26t-27 -11
q-15 0 -26 11t-11 26q0 16 11 27t26 11q16 0 27 -11t11 -27z" />
    <glyph glyph-name="adieresis.ss01" horiz-adv-x="352" 
d="M294 0h-54v46q-10 -20 -28 -34q-27 -20 -61 -20q-48 0 -81 34q-33 35 -33 115q0 76 43 115q37 34 100 34h58v91q0 87 -70 87q-27 0 -46 -19q-23 -24 -23 -71h-56q0 68 37 105q34 34 88 34q61 0 91 -32q35 -37 35 -106v-379zM238 134v112h-56q-39 0 -62 -22
q-27 -27 -27 -82q0 -100 71 -100q33 0 53.5 26t20.5 66zM278 637q0 -15 -11 -26t-26 -11q-16 0 -27 11t-11 26q0 16 11 27t27 11q15 0 26 -11t11 -27zM140 637q0 -15 -10.5 -26t-26.5 -11t-27 11t-11 26q0 16 11 27t27 11t26.5 -11t10.5 -27z" />
    <glyph glyph-name="ccedilla.ss01" horiz-adv-x="340" 
d="M303 134q-2 -75 -36 -109q-33 -33 -90 -33q-60 0 -94 40q-22 26 -30 76.5t-8 145.5t8 145.5t30 76.5q33 41 94 41q58 0 90 -32q34 -33 36 -111h-55q0 51 -20 72q-18 21 -50 21q-34 0 -52 -23q-16 -20 -20.5 -61t-4.5 -129t4.5 -128.5t20.5 -60.5q18 -23 52 -23
q29 0 49 20q21 22 21 72h55zM220 -118q0 -38 -25.5 -62.5t-66.5 -24.5v38q21 0 35.5 14t14.5 35q0 20 -14.5 34t-35.5 14v39q41 0 66.5 -25t25.5 -62z" />
    <glyph glyph-name="edieresis.ss01" horiz-adv-x="349" 
d="M309 246h-208q0 -85 5 -124t21 -57q19 -23 51 -23q33 0 52 20q22 23 22 72h55q0 -69 -37 -107q-34 -35 -92 -35q-57 0 -92 37q-24 26 -32.5 77.5t-8.5 147.5q0 98 8.5 149t32.5 77q34 37 91 37t91 -37q24 -27 32.5 -79t8.5 -155zM253 291q-1 125 -26 153q-19 23 -50 23
q-32 0 -51 -23q-24 -27 -25 -153h152zM283 637q0 -15 -11 -26t-26 -11q-16 0 -27 11t-11 26q0 16 11 27t27 11q15 0 26 -11t11 -27zM145 637q0 -15 -10.5 -26t-26.5 -11t-27 11t-11 26q0 16 11 27t27 11t26.5 -11t10.5 -27z" />
    <glyph glyph-name="idieresis.ss01" horiz-adv-x="181" 
d="M119 0h-56v509h56v-509zM197 637q0 -15 -11 -26t-26 -11q-16 0 -27 11t-11 26q0 16 11 27t27 11q15 0 26 -11t11 -27zM59 637q0 -15 -10.5 -26t-26.5 -11t-27 11t-11 26q0 16 11 27t27 11t26.5 -11t10.5 -27z" />
    <glyph glyph-name="odieresis.ss01" horiz-adv-x="353" 
d="M309 254q0 -95 -8 -145t-30 -77q-33 -40 -94 -40t-94 40q-22 27 -30 77t-8 145t8 145t30 77q33 41 94 41t94 -41q22 -27 30 -77t8 -145zM253 254q0 89 -5 129.5t-21 60.5q-19 23 -50 23q-32 0 -51 -23q-16 -20 -20.5 -60t-4.5 -130t4.5 -129.5t20.5 -59.5q19 -23 51 -23
q31 0 50 23q16 20 21 60t5 129zM283 637q0 -15 -11 -26t-26 -11q-16 0 -27 11t-11 26q0 16 11 27t27 11q15 0 26 -11t11 -27zM145 637q0 -15 -10.5 -26t-26.5 -11t-27 11t-11 26q0 16 11 27t27 11t26.5 -11t10.5 -27z" />
    <glyph glyph-name="divide.ss01" horiz-adv-x="431" 
d="M383 248h-335v53h335v-53zM260 128q0 -18 -13 -31t-31 -13t-31.5 13t-13.5 31t13.5 31.5t31.5 13.5t31 -13.5t13 -31.5zM260 421q0 -18 -13 -31t-31 -13t-31.5 13t-13.5 31q0 19 13.5 32t31.5 13t31 -13t13 -32z" />
    <glyph glyph-name="udieresis.ss01" horiz-adv-x="373" 
d="M311 0h-55v41q-10 -18 -29 -31q-26 -18 -58 -18q-48 0 -80 34q-31 33 -31 101v382h56v-383q0 -40 19.5 -61.5t50.5 -21.5t51 21.5t20 61.5v383h56v-509zM290 637q0 -15 -11 -26t-26 -11q-16 0 -27 11t-11 26q0 16 11 27t27 11q15 0 26 -11t11 -27zM152 637
q0 -15 -10.5 -26t-26.5 -11t-27 11t-11 26q0 16 11 27t27 11t26.5 -11t10.5 -27z" />
    <glyph glyph-name="ydieresis.ss01" horiz-adv-x="308" 
d="M301 509l-144 -608q-14 -57 -50.5 -80.5t-97.5 -23.5v50q76 0 93 65l23 90l-121 507h62l87 -420l87 420h61zM264 637q0 -15 -11 -26t-26 -11q-16 0 -27 11t-11 26q0 16 11 27t27 11q15 0 26 -11t11 -27zM126 637q0 -15 -10.5 -26t-26.5 -11t-27 11t-11 26q0 16 11 27
t27 11t26.5 -11t10.5 -27z" />
    <glyph glyph-name="ij.ss01" horiz-adv-x="362" 
d="M118 0h-56v509h56v-509zM131 663q0 -17 -12 -29t-29 -12q-16 0 -28 12t-12 29t12 29t28 12q17 0 29 -12t12 -29zM299 -67q0 -69 -38 -104q-34 -32 -101 -32v50q41 0 62 20t21 66v576h56v-576zM312 663q0 -17 -12 -29t-29 -12q-16 0 -28 12t-12 29t12 29t28 12
q17 0 29 -12t12 -29z" />
    <glyph glyph-name="Ydieresis.ss01" horiz-adv-x="315" 
d="M312 712l-125 -414v-298h-59v298l-125 414h65l89 -326l90 326h65zM127 815q0 -15 -11 -26t-26 -11q-16 0 -27 11t-11 26q0 16 11 27t27 11q15 0 26 -11t11 -27zM265 815q0 -15 -11 -26t-27 -11q-15 0 -26 11t-11 26q0 16 11 27t26 11q16 0 27 -11t11 -27z" />
    <glyph glyph-name="dotaccent.ss01" horiz-adv-x="354" 
d="M215 637q0 -15 -11 -26t-27 -11q-15 0 -26 11t-11 26q0 16 11 27t26 11q16 0 27 -11t11 -27z" />
    <glyph glyph-name="ogonek.ss01" horiz-adv-x="354" 
d="M221 -205q-41 0 -66.5 24.5t-25.5 62.5q0 37 25.5 62t66.5 25v-39q-21 0 -35 -14t-14 -34q0 -21 14 -35t35 -14v-38z" />
    <glyph glyph-name="ellipsis.ss01" horiz-adv-x="552" 
d="M497 41q0 -19 -13 -32t-32 -13q-18 0 -31 13t-13 32q0 18 13 31t31 13q19 0 32 -13t13 -31zM144 41q0 -19 -13 -32t-32 -13q-18 0 -31 13t-13 32q0 18 13 31t31 13q19 0 32 -13t13 -31zM320 41q0 -19 -13 -32t-31 -13t-31.5 13t-13.5 32q0 18 13.5 31t31.5 13t31 -13
t13 -31z" />
    <glyph glyph-name="dotmath.ss01" horiz-adv-x="431" 
d="M272 277q0 -23 -17 -40t-40 -17t-40 17t-17 40t17 40t40 17t40 -17t17 -40z" />
    <glyph glyph-name="fi.ss01" horiz-adv-x="399" 
d="M221 465h-87v-465h-56v465h-62v44h62v73q0 68 38 103q36 32 105 32v-50q-87 0 -87 -86v-72h87v-44zM337 0h-56v509h56v-509zM349 667q0 -17 -12 -29t-28 -12q-17 0 -29 12t-12 29q0 16 12 28t29 12t28.5 -11.5t11.5 -28.5z" />
    <glyph glyph-name="exclamdown.case.ss01" horiz-adv-x="227" 
d="M128 0h-57v525h57v-525zM144 671q0 -18 -13 -31t-32 -13q-18 0 -31 13t-13 31q0 19 13 32t31 13q19 0 32 -13t13 -32z" />
    <glyph glyph-name="questiondown.case.ss01" horiz-adv-x="375" 
d="M317 150q0 -81 -39 -119q-37 -37 -96 -37q-63 0 -99 37q-40 41 -40 134q0 69 29 115l58 93q21 32 21 74v78h56v-85q0 -45 -24 -83l-58 -92q-26 -41 -26 -101q0 -68 28 -98q20 -22 55 -22q32 0 53 21q26 26 26 85h56zM224 671q0 -19 -13 -31.5t-32 -12.5t-31.5 12.5
t-12.5 31.5t12.5 32t31.5 13t32 -13t13 -32z" />
    <glyph glyph-name="dieresis.lc.ss01" horiz-adv-x="354" 
d="M283 637q0 -15 -11 -26t-26 -11q-16 0 -27 11t-11 26q0 16 11 27t27 11q15 0 26 -11t11 -27zM145 637q0 -15 -10.5 -26t-26.5 -11t-27 11t-11 26q0 16 11 27t27 11t26.5 -11t10.5 -27z" />
    <glyph glyph-name="dotaccent.lc.ss01" horiz-adv-x="354" 
d="M214 637q0 -15 -11 -26t-26 -11q-16 0 -27 11t-11 26q0 16 11 27t27 11q15 0 26 -11t11 -27z" />
    <glyph glyph-name="diedot.lc.ss01" horiz-adv-x="354" 
d="M214 637q0 -15 -11 -26t-26 -11q-16 0 -27 11t-11 26q0 16 11 27t27 11q15 0 26 -11t11 -27z" />
    <glyph glyph-name="dieresis.uc.ss01" horiz-adv-x="421" 
d="M179 815q0 -15 -11 -26t-26 -11q-16 0 -27 11t-11 26q0 16 11 27t27 11q15 0 26 -11t11 -27zM317 815q0 -15 -11 -26t-27 -11q-15 0 -26 11t-11 26q0 16 11 27t26 11q16 0 27 -11t11 -27z" />
    <glyph glyph-name="dotaccent.uc.ss01" horiz-adv-x="421" 
d="M248 811q0 -15 -11 -26t-26 -11q-16 0 -27 11t-11 26q0 16 11 27t27 11q15 0 26 -11t11 -27z" />
    <glyph glyph-name="diedot.uc.ss01" horiz-adv-x="354" 
d="M248 811q0 -15 -11 -26t-26 -11q-16 0 -27 11t-11 26q0 16 11 27t27 11q15 0 26 -11t11 -27z" />
    <glyph glyph-name="caroncomma" horiz-adv-x="500" 
d="M423 720l-30 -134h-44l21 134h53z" />
    <glyph glyph-name="commaaccent" horiz-adv-x="354" 
d="M209 -37l-46 -134h-53l53 134h46z" />
    <glyph glyph-name="commaturn" horiz-adv-x="322" 
d="M153 586l46 134h53l-53 -134h-46z" />
    </font>
</defs>
</svg>
